<?xml version="1.0" encoding="UTF-8"?>
<svg id="Layer_1" data-name="Layer 1" xmlns="http://www.w3.org/2000/svg" viewBox="0 0 1921 404.53">
  <path d="M1920.53,106.13c-.31-.1-.55-.12-.61-.23-1.75-3.32-5.34-4.28-8.15-6.17-1.87-1.26-4.84-1.13-6.37-2.6-1.85-1.78-3.71-1.68-5.77-1.85-.4-.03-.94-.15-1.16-.43-2.56-3.24-6.04-4.84-9.93-5.79-.31-.07-.55-.39-.85-.53-.98-.48-1.96-1.29-2.97-1.33-4.02-.15-8.06-.14-12.08,0-.93.03-1.79.96-2.75,1.21-1.05.28-3,.61-3.13.3-.85-1.99-2.46-1.51-3.93-1.58-1.34-.06-2.74.23-3.28-1.65-.13-.45-1.28-.63-1.97-.9-.53-.21-1.1-.35-1.63-.56-1.26-.49-2.5-1.37-3.78-1.45-3.59-.2-7.19-.04-10.79-.1-.8-.01-1.61-.3-2.38-.58-1.18-.43-2.31-1.35-3.48-1.38-6.6-.14-13.2-.05-19.79-.1-.8,0-1.64-.26-2.4-.54-1.18-.43-2.28-1.32-3.46-1.42-2.55-.22-5.14-.08-7.71-.07-1.68,0-3.35.21-4.43-1.67-.51-.89-1.46-1.71-2.41-2.14-3.54-1.61-7.16-3.05-10.74-4.57-.3-.13-.52-.42-.8-.59-2.31-1.31-4.69-2.51-6.91-3.95-2.31-1.5-4.74-2.32-7.5-2.24-.29,0-.57-.59-.91-.8-1.71-1.02-3.38-2.66-5.19-2.86-2.48-.27-3.51-2.02-5.09-3.26-.44-.35-.92-.96-1.37-.95-2.44.03-3.39-2.13-5.06-3.22-2.66-1.75-3.47-5.91-7.57-5.83-.31,0-.6-.53-.94-.77-2.56-1.83-3.8-5.58-7.79-5.4-.23.01-.44-.66-.75-.89-2.38-1.7-3.46-5.14-7.06-5.26-.46-.02-1.06-.59-1.32-1.05-2.28-4.14-7.41-2.75-10.43-5.42-.1-.09-.33-.03-.5-.03-3.43,0-6.86-.11-10.28.07-1.01.05-2.29.7-2.9,1.49-1.07,1.4-1.34,3.6-2.62,4.61-3.41,2.71-5.24,6.52-7.77,9.86-1.3,1.72-2.79,3.39-4.48,4.71-2.32,1.82-4.74,3.9-7.46,4.69-2.07.6-3.47,1.76-4.74,3-3.91,3.81-7.49,7.96-11.3,11.87-3.36,3.45-6.83,6.81-10.33,10.11-1.05.99-2.35,2.29-3.6,2.36-2.36.13-5.14,1.23-7.02-1.5-.24-.35-1.11-.36-1.69-.36-9.17-.02-18.34-.05-27.51.04-.84,0-1.72.73-2.5,1.25-3.39,2.26-4.8,7.04-9.58,7.56-.23.02-.58.2-.64.37-.6,1.96-2.22,1.52-3.61,1.54-2.57.04-5.15.17-7.71-.03-3.51-.26-6.36.52-8.31,3.75-.59.98-1.72,2.08-2.74,2.25-2.38.39-4.65.35-6.8,2.07-1.7,1.36-4.19,1.72-6.32,2.57-.37.15-.75.46-.96.8-1.44,2.38-3.65,3.31-6.29,3.54-.56.05-1.23.23-1.61.6-1.65,1.6-3.11,3.41-4.84,4.91-1.23,1.08-2.73,2.44-4.2,2.56-4.08.35-8.22.18-12.33.06-.73-.02-1.53-.67-2.15-1.21-1.74-1.5-3.13-3.11-5.95-2.94-5.38.34-10.79.11-16.19.08-.83,0-2.17.03-2.41-.42-1.15-2.12-3.04-1.43-4.74-1.65-.78-.1-1.75-.28-2.24-.8-1.66-1.73-3.2-3.58-4.65-5.49-.66-.87-1.33-1.94-1.43-2.98-.33-3.41-.33-3.71-3.83-3.49-3.2.2-5.4-.8-7.28-3.45-1.33-1.88-3.26-3.03-6.01-2.87-5.04.3-10.14.46-15.15-.04-3.41-.34-5.84,1.62-8.23,2.86-4.09,2.13-6.01,6.79-8.25,10.73-1.59,2.79-3.09,4.05-6.17,3.27-3.94-1-5.76-4.73-8.77-6.94-.82-.6-1.74-1.42-2.66-1.48-2.81-.19-5.65-.05-8.48-.07-1.41,0-2.31.52-2.41,2.03.79.32,1.57.86,2.37.91,4.93.28,7.55,3.56,9.8,7.34.62,1.04,1.32,1.99,2.06,2.87h-35.13s-.05-.09-.08-.13c-.65-.03-1.63-.1-1.76.19-1.01,2.4-3.07,1.7-4.83,1.72-5.31.05-10.63.01-15.94.03-1.34,0-2.5-.04-3.43,1.54-.35.6-.81,1.14-1.31,1.64h-14.66c-.35-.31-.68-.65-1-1.02-2.24-2.55-6.35-2.61-8.06-5.92-4.97-.79-7.04-5.12-10.1-8.25-.18-.18-.38-.36-.61-.45-2.17-.86-4.76-1.21-6.41-2.65-2.7-2.34-6.35-.67-8.49-2.13-4.74-3.24-9.67-1-14.41-1.82-.5-.09-1.33-.05-1.45-.32-1.1-2.5-3.3-1.67-5.12-1.69-6.68-.07-13.37-.1-20.05.04-1.19.02-2.35.91-3.54,1.33-.78.28-1.59.6-2.39.62-3.17.08-6.34.1-9.51.03-1.96-.05-2.95.73-2.72,2.72.32,2.73-.89,3.69-3.55,3.5-2.39-.17-4.8-.08-7.2-.02-1.62.05-3.32-.43-4.53,1.56-.4.66-2.38.45-3.64.47-4.69.08-6.7,2.11-6.86,6.74-.05,1.31-.55,3.63-1.11,3.72-2.2.33-4.38.81-6.76-.73-2.44-1.58-5.17-2.69-7.22-4.9-.3-.32-1.15-.17-1.75-.17-6.77,0-13.54-.06-20.31.05-.97.02-1.9,1.15-2.91,1.26-1.8.2-3.65.06-5.47-.07-.37-.03-.7-1-1.04-.99-2.74.07-5.08-.81-7.35-2.34-2.73-1.84-5.91-3.07-8.39-5.17-1.37-1.16-2.54-1.36-4.06-1.51-1.88-.18-4.22.96-5.33-1.67-4.13-.34-5.65-4.66-8.7-6.01-3.92-1.73-6.52-5.08-10.32-6.69-2.18-.92-4.46-1.62-6.6-2.63-2.07-.97-4.02-2.21-6.02-3.35-.21-.12-.38-.47-.57-.47-1.89.03-3.01-1.23-4.44-2.19-2.61-1.75-5.63-2.87-8.39-4.41-1.98-1.1-3.76-2.56-5.73-3.66-1.92-1.07-4-1.86-5.97-2.83-2.18-1.07-4.31-2.24-6.48-3.32-.66-.33-1.41-.48-2.07-.81-.76-.36-1.45-.85-2.2-1.24-.57-.3-1.19-.51-1.76-.81-.81-.42-1.56-.98-2.41-1.31-.91-.35-1.88-.6-2.85-.73-1.44-.2-3.16.45-3.87-1.61-.09-.28-.93-.25-1.38-.46-.91-.44-1.78-.96-2.69-1.41-.51-.25-1.09-.39-1.6-.65-.82-.42-1.63-.89-2.42-1.37-.5-.31-.93-.73-1.45-1.01-2.51-1.32-5-2.69-7.58-3.87-2.13-.97-4.42-1.59-6.54-2.58-1.99-.93-3.85-2.15-5.78-3.2-1.77-.97-3.51-2.47-5.37-2.68-2.55-.28-3.5-2.19-5.15-3.41-1.77-1.31-3.77-2.31-5.68-3.41-1.11-.64-2.29-1.15-3.36-1.84-1.5-.97-2.6-2.26-4.7-2.62-2-.34-3.73-2.21-5.6-3.39-.28-.18-.62-.25-.92-.39-2.51-1.23-5.01-2.46-7.52-3.7-.08-.04-.13-.14-.2-.15-4.59-.47-6.66-4.98-10.56-6.55-2.12-.85-4.3-1.59-6.36-2.59-2.13-1.03-4.15-2.32-6.22-3.48-.36-.2-.74-.37-1.14-.5-.24-.08-.57.05-.76-.08-1.22-.78-2.5-1.41-3.84-1.81h-11.82v-.53c-.19.1-.37.18-.56.19-1.45.11-2.93.27-4.36.07-6.19-.86-11.28,1.98-16.41,4.73-6.26,3.36-11.93,7.44-17.2,12.3-4.02,3.71-8.96,6.42-13.53,9.52-.6.41-1.43.56-2.18.67-7.44,1.08-14.15,4.1-20.79,7.47-4.08,2.07-8.44,3.58-12.57,5.56-1.81.87-3.64,2.03-4.99,3.5-3.63,3.95-7.03,8.1-10.46,12.22-4.21,5.06-9.07,9.01-15.41,11.35-5.62,2.08-10.89,5.1-16.35,7.62-3.94,1.82-7.94,3.53-11.93,5.24-4.51,1.93-8.95,4.12-13.6,5.63-5.38,1.75-10.6,4.52-16.75,3.66-2.87.54-5.78.71-8.2,1.88-2.03.98-3.49,3.12-5.19,4.77-.29.28-.44.81-.76.94-2.12.83-4.61,1.15-6.32,2.48-1.74,1.35-3.31,1.98-5.41,1.84-1.68-.11-3.09-.17-4.62-1.45-1.67-1.4-4.12-1.87-6.23-2.73-1.72-.69-3.45-1.35-5.39-2.02-3.15-.24-6.29.12-8.96-.83-5.92-2.11-11.51-5.1-17.4-7.3-5.16-1.93-10.66-2.96-15.78-4.98-4.87-1.92-9.8-1.32-14.7-1.26-5.35.07-10.33-1.14-15.13-3.27-1.29-.57-2.47-1.57-3.48-2.59-3.29-3.35-7.42-4.7-11.91-5.35-3.52-.51-7.01-1.17-10.53-1.64-.89-.12-1.95,0-2.76.39-3.97,1.87-8.16,1.66-12.36,1.54-4.17-.12-7.24-2.78-10.69-4.58-1.56-.81-3.24-1.39-4.86-2.08-1.95-.84-3.91-1.66-5.84-2.54-4.65-2.1-9.29-4.19-13.91-6.35-1-.46-1.87-1.18-2.82-1.74-1.1-.65-2.16-1.65-3.34-1.82-3.92-.56-6.75-3.09-9.96-4.97-3.3-1.94-6.73-3.66-10.06-5.56-3.1-1.77-6.1-3.72-9.21-5.45-4.44-2.48-8.84-3.82-14.12-1.74-5.27,2.08-11.12,2.68-16.39,4.75-10.5,4.12-21.34,1.98-32.01,2.29-8.03.23-14.8,2.54-20.31,8.5-4.47,4.84-9.19,9.46-13.67,14.29-3.87,4.18-7.47,8.62-11.39,12.75-1.1,1.16-2.83,1.8-4.36,2.44-4.31,1.78-8.77,3.23-12.98,5.2-6.78,3.17-13.36,6.74-20.92,7.87-2.5.37-4.92,1.37-7.36,2.14-5.99,1.89-11.96,3.85-17.97,5.69-1.29.4-2.7.61-4.06.6-7.53-.02-15.07,0-22.59-.31-1.83-.07-3.65-1.23-5.42-2.01-6.05-2.7-12.02-5.58-18.12-8.16-5-2.11-10.04-4.65-15.65-4.16-7.58.66-13.86-2.41-19.77-6.41-3.79-2.56-7.21-5.69-10.71-8.66-4.03-3.42-6.08-8.19-8.24-12.81-3.14-6.7-5.85-13.6-9.04-20.27-1.35-2.81-3.58-4.84-7.21-4.98-2.59-.1-5.16-.98-7.74-1.51-.58-.12-1.18-.43-1.74-.37-6.47.7-12.59-1.38-18.64-2.93-4.7-1.21-9.62-2.01-13.64-5.83-4.73-4.48-10.47-8.14-16.9-9.74-3.6-.9-7.67-.62-11.4-.05-3.73.56-7.41,1.91-10.92,3.36-2.22.92-4.27,2.49-6.09,4.1-2.5,2.21-4.72,4.72-7.04,7.12-2.13,2.19-3.28,4.77-4.23,7.73-1.17,3.64-2.2,7.46-4.98,10.54-2.26,2.5-3.61,5.79-5.71,8.45-2.1,2.67-4.49,5.15-7.01,7.43-2.9,2.62-6.19,4.8-9.1,7.41-3.05,2.75-5.83,5.79-8.76,8.68-4.21,4.15-9.31,6.6-14.89,8.48-3.23,1.08-6.26,3.13-8.97,5.27-2.8,2.22-5.72,3.1-9.2,3.25-3.01.13-5.98,1.02-8.99,1.38-6.19.74-12.38,1.63-18.43-1-3.58-1.56-7.26-2.92-10.96-4.18-1.16-.39-2.63-.51-3.78-.16-4.87,1.53-9.65,3.35-14.51,4.93-3.55,1.16-7.17,2.1-10.75,3.16-1.71.51-3.42,1.04-5.09,1.65-5.82,2.11-11.8,3.88-17.39,6.48-6.6,3.07-13.59,5.54-19.04,10.78-1.17,1.13-3.18,1.39-5.01,2.29-.21,15.34-.21,30.43-.21,45.53.11,0,.22,0,.32,0v240.21h1919V147.06c.15,0,.29,0,.44,0,.24-13.79.24-27.34.09-40.92ZM1551.9,143.34c.28.07.57.13.85.2h-4.75v-.88c1.3.14,2.6.37,3.9.68ZM468.85,143.32c.48.08,1.04.01,1.43.22h-7.94c2.13-.4,4.29-.58,6.52-.22ZM129.05,143.53c1.94-1.46,3.92-2.86,5.95-4.17v4.17h-5.95Z" style="fill: #528c9c; opacity: .54; stroke-width: 0px;"/>
  <path d="M272.64,250.28c0,.1.01.2-.1.55-.63.7-1.12,1.19-1.67,1.6-3.62,2.67-10.53,4.23-14.24-.27-.57-.69-1.45-1.32-2.3-1.56-7.17-2.08-13.87-6.1-21.74-5.42-.57.05-1.17-.22-1.76-.33-3.26-.56-6.5-1.51-9.77-1.57-3.75-.06-6.96-1.18-10.21-2.86-3.85-1.99-7.73-4.29-11.88-5.24-4.34-.99-9.01-.48-13.53-.72-6.42-.33-11.89,1.66-16.54,6.17-1.23,1.2-2.95,2.18-4.61,2.6-6.35,1.6-12.76,2.92-19.15,4.37-1,.23-1.97.6-2.97.81-1.66.36-3.33.66-4.99.95-2.85.5-5.71.9-8.55,1.47-4.27.86-8.52,1.78-12.76,2.74-7.08,1.62-14.21,3.08-19.49,8.77-2.14,2.3-3.01,2.07-3.98-.9-.71-2.18-1.83-1.92-3.23-.87-1.97,1.46-1.64,3.39-.98,5.35-.04.19-.09.38-.33.8-.56,1.04-.93,1.86-1.37,2.83-.17.59-.27,1.03-.37,1.47-.04.52-.09,1.05-.31,1.81-2.18,2.51-4.48,4.58-6.13,7.07-3.04,4.61-5.69,9.47-8.52,14.37-.02.25-.02.35-.03.45-2.29-.36-5.04.68-6.35-2.5-.46-1.12-1.49-2.26-2.56-2.84-3.69-2-7.59-3.61-11.24-5.66-1.91-1.07-3.47-2.76-5.09-4.56.04-1.25,0-2.11-.05-2.96.46-.22,1.02-.73,1.36-.61,2.07.76,4.09,1.67,6.39,2.78,1.4.18,2.53.11,3.67.03.12-.9.24-1.8.44-3.29,1.35,1.17,2.36,2.06,3.6,3.18.59.4.95.56,1.31.72.37.34.74.69,1.29,1.29,1.15.14,2.13.02,3.1-.1.01-.24.02-.49.12-1.09.18-1.46.26-2.55.35-3.64,0,0,.1-.09.45-.08.89,0,1.43-.03,1.98-.05,1.25-.02,2.52.04,3.76-.07,1.63-.15,2.97-.71,2.53-3.03-1.96-.47-3.72-.67-5.47-.87,0,0-.06,0-.07-.24-.07-.79-.13-1.34-.2-1.89,0,0,.11.1.16.03.23-.35.42-.62.61-.89-.01-.26-.03-.53-.18-1.13-1.79-.54-3.43-.75-5.08-.95,0,0,0-.01-.03-.11-.35-.24-.65-.38-.96-.52-.38-.36-.76-.73-.97-1.34.42-.56.67-.86.92-1.16,0,0,.03.03.19,0,.74-.35,1.32-.66,1.9-.98.01-.24.03-.48.09-.97-.15-.43-.35-.6-.55-.77-4.04.64-7.71-.61-11.32-2.19-.53-.23-1.15-.55-1.44-1.01-.63-1.01-1.08-2.13-1.6-3.21,1.04-.32,2.09-.65,3.46-.96.57-.25.8-.51,1.04-.76.55-.21,1.1-.43,1.92-.82,1.31-1.41.41-1.95-.59-2-5-.26-7.14-4.16-9.45-7.61-1.17-1.74-2.22-2.92-4.38-2.73-2.83-2.51-3.12-3.66-1.88-7.12.17-.47.21-1,.27-1.5.33-2.85.75-3.04,3.55-2.13.77.25,1.74-.12,2.61-.2-.35-.66-.71-1.32-1.06-1.98-1.35-2.52-2.7-5.03-4.03-7.55-.31-.58-.58-1.2-.75-1.83-.42-1.6-1.32-3.34,1.24-4.12,1.43-.44,1.29-1.3.41-2.32-1.26-1.44-2.44-2.96-3.78-4.6-.26,4.14-3.48,6.55-6.15,9.38-.93.99-.36,1.67.88,1.91,1.67.32,1.58,1.2,1.42,2.79-.38,3.8-1.34,6.89-5.43,8.08-.22.06-.45.78-.35,1.08.11.3.6.61.96.66,1.75.28,3.52.4,5.25.73.68.13,1.5.53,1.83,1.07.2.34-.26,1.27-.66,1.74-.95,1.16-2.04,2.2-3.11,3.34,1.58-.11,2.96-.3,4.32-.22.23.01.41,1.13.44,2.01-.73.48-1.34.61-1.84.92-3.54,2.21-7.29,3.63-11.56,3.47-2.08-.08-3.02,1.4-3.27,3.28-.24,1.8-1.13,2.73-2.96,2.9-2.06.2-2.95,1.51-2.95,3.63.17.55.35.97.67,1.47.41.22.68.36,1.08.61.9.35,1.68.59,2.57.84.12,0,.36.03.46.18,1.41,1.26,2.73,2.37,4.04,3.62-.04.42-.07.7-.09.98-.39.04-.78.09-1.49.18-1.61,1.25-2.7,3-4.23,3.58-6.39,2.43-12.93,4.38-19.92,3.82,0-36,0-72.01.24-108.25,7.59.27,14.87-.64,22.33,1.36,9.01,2.41,18.22-.66,27.27-2.2.17-.03.34-.09.48-.18,4.05-2.51,8.26-4.8,12.1-7.6,3.86-2.81,7.85-4.52,12.71-4.48,14.05.11,28.11.12,42.16-.06,2.24-.03,4.81-.73,6.63-1.98,4.42-3.03,8.36-6.76,12.77-9.8,2.14-1.47,4.7-3.38,7.57-2.1,2.61,1.17,5.18,2.67,7.37,4.5,3.85,3.22,7.79,5.83,13.1,5.38.83-.07,1.75.05,2.52.36,7.02,2.87,11.91,8.11,15.84,14.4,2.76,4.41,7.15,8.35,13.19,4.86.83-.48,1.97-.57,2.98-.59,3.25-.07,6.51-.07,9.77,0,1,.02,2,.35,3,.57,2.14.47,4.26,1.34,6.4,1.39,8.14.17,16.28.02,24.42.1,4.39.05,8.68.09,12.55-2.58,4.81-3.33,9.92-6.25,14.59-9.76,3.53-2.64,7.11-4.63,11.58-4.64,6.17-.02,12.34-.01,18.51-.02,2.73,0,5.18-.6,7.29-2.61.89-.85,2.39-1.27,3.68-1.45,4.82-.68,8.92,1.27,13.09,3.48,8.13,4.32,16.5,8.19,24.7,12.38,4.26,2.17,8.56,3.57,13.47,3.16,5.07-.43,10.11.18,15.16-1.78,4.2-1.63,8.97-1.77,13.49-2.58.76-.14,1.62-.11,2.25-.47,3.09-1.78,6.48-1.66,9.77-1.38,5.27.45,9.83-1.92,14.66-3.23,3.78-1.02,7.48-2.32,11.26-3.32,3.68-.97,7.46-1.6,11.13-2.61,2.52-.69,5.06-1.55,7.37-2.74,3.23-1.66,6.39-3.13,10.15-3.17,1.82-.02,3.61-.91,5.44-1.26,1.12-.21,2.32-.29,3.44-.12,2.51.39,4.98,1.41,7.47,1.42,22.96.11,45.93.09,68.89.03,1.94,0,3.99-.2,5.81-.83,4.59-1.61,9.08-3.42,14.06-3.53,1.4-.03,2.77-.79,4.18-1.11,4.14-.95,8.28-2.56,12.44-2.63,18.33-.29,36.67-.13,55.01-.11,1.27,0,2.59.09,3.8.44,3.84,1.13,7.64,2.38,11.45,3.62,2.51.82,5.06,1.57,7.5,2.58,7.85,3.23,15.56,6.83,24.09,8.03.58.08,1.12.41,1.69.6,3.39,1.12,6.82,2.1,10.15,3.37,3.87,1.48,8.18,2.51,11.32,4.99,4.32,3.41,8.41,6.54,13.82,8.37,5.78,1.96,11.33,2.15,17.14,1.28,2.6-.39,4-2.05,5.38-4.24,1.65-2.62,3.98-4.84,6.2-7.06.43-.43,1.88-.31,2.55.08,3.61,2.07,7.4,3.97,10.61,6.58,4.2,3.4,8.75,3.44,13.35,2.15,6.64-1.87,13.16-3.99,20.21-3.53,3.75.25,7.55.18,11.3-.04,1.82-.1,3.91-.43,5.34-1.44,4.72-3.33,9.28-6.84,13.5-10.89,6.78-6.51,12.09-14.76,21.13-18.73,4.05-1.78,8.06-3.66,12.16-5.29,4.57-1.82,9.42-2.91,12.71-7.17,2.08-2.69,4.82-4.86,7.2-7.33,4.96-5.16,10.49-9.15,17.52-11.4,6.29-2.01,11.93-.66,17.33,1.74,3.72,1.65,6.78,4.77,10.13,7.24.55.41,1.03.92,1.61,1.26,4.82,2.87,9.6,5.8,14.49,8.55,3.5,1.97,7.12,3.76,11.36,3.43.75-.06,1.64-.04,2.27.3,3.91,2.12,8.15,1.66,12.33,1.76,1.61.04,3.23.22,4.83.48,2.93.47,5.83,1.07,8.75,1.56,1.18.2,2.46,0,3.55.37,5.39,1.84,10.78,3.68,16.05,5.8,1.92.77,3.51,2.36,5.29,3.51,3.21,2.08,6.48,4.07,9.68,6.16,6.5,4.24,13,8.26,20.84,9.88,5.21,1.08,10.2,3.21,15.25,5.01,4.33,1.54,8.59,3.28,12.9,4.91,4.6,1.73,9.2,3.46,13.82,5.14,3.26,1.19,6.54,2.32,9.83,3.41,3.07,1.02,6.12,2.11,9.25,2.9,5.43,1.38,10.87,3.38,16.37,3.63,12.14.55,24.33.2,36.5.14,1.87,0,3.8-.19,5.58-.7,4.41-1.27,8.75-2.79,13.12-4.2,6.43-2.07,12.89-3.85,19.77-3.4,1.94.13,3.97-.11,5.87-.55,1.33-.31,2.52-1.23,3.99-1.89,2.17-.18,4.39.35,5.45-2.06,0,0-.02.02.19,0,1.46-.69,2.72-1.37,4.1-2.07.11-.02.33-.07.52-.11,1.32-.4,2.52-.62,3.58-1.13,6.63-3.25,13.25-6.54,19.83-9.89.78-.39,1.33-1.22,2-1.85.01,0,.03-.01.26.01,2.36-.02,4.69.47,6.07-2.1.4-.07.63-.1,1.08-.09,2.28.2,4.28.24,5.34-2.24,3.12-.14,6.02-.27,9.1-.33,1.44.13,2.69.19,4.14.3,1.79.12,3.39.19,5.06.43,2.11,1.42,4.11,2.77,6.24,3.84.54.27,1.53-.37,2.48-.55.39.06.61.1.97.23,4.43,1.48,8.71,1.7,13.11-.12.39-.05.61-.09.95-.02,2.08,1.07,3.53.66,4.53-1.48.51-.08.86-.13,1.43-.13,2.23.35,4.01.19,4.91-2.17.53-.09.88-.15,1.4-.13,3.01,1.14,4.78-1.24,6.95-2.16,3.91-1.65,7.81-3.5,10.01-7.65.17-.18.26-.28.57-.41,2.65-.72,5.09-1.42,7.7-2.14.42-.03.66-.06,1.1-.08.88-.07,1.73.09,2.2-.26,2.95-2.22,6.35-1.57,9.62-1.62,3.58-.05,7.17-.07,10.75.03,1.25.03,2.5.41,3.72.72,1.46.38,2.88,1.15,4.35,1.24,4.68.28,9.37.36,14.05.41.98,0,1.96-.45,3.1-.73.36-.07.57-.1.95-.09,1.37-.2,2.72-.18,3.74-.75,5.84-3.25,11.58-6.67,17.39-9.98,3.83-2.18,5.41-6.9,3.59-11.14.02-.36.03-.56.19-.82,4.54-3.54,7.95-7.7,9.32-13.86,1.16,1.76,2.3,2.92,2.75,4.3,1,3.07,3.5,1.28,5.25,1.74.49.13,1.59-1.17,2.06-2.02,1.83-3.31,4.42-3.92,6.97-1.21,2.04,2.16,3.66,4.7,5.59,6.97,1.08,1.27,2.24,2.67,3.67,3.42,2.92,1.51,6.08,2.55,9.09,3.91,3.65,1.65,7.2,3.53,10.87,5.13,5.82,2.54,10.66,6.35,13.93,11.7,3.46,5.66,7.24,10.97,12.2,15.39.82.73,1.76,1.87,2.66,1.89,7.49.16,15.08.81,22.45-.15,4.81-.62,9.31-3.61,14.49-3.46.75.02,1.51-.27,2.26-.45,4.69-1.14,9.32-2.64,14.07-3.37,7.64-1.17,15.09.64,22.51,2.27.41.09.78.35,1.16.54,3.27,1.66,6.45,3.56,9.84,4.93,4.7,1.89,9.53,3.48,14.37,5,2.73.86,5.57,1.78,8.4,1.89,7.1.27,14.22.26,21.32,0,2.73-.1,5.45-1.11,8.13-1.85,2.78-.77,5.5-1.75,8.27-2.59,2.99-.91,6.01-1.74,9.01-2.64,3.8-1.14,7.54-2.54,11.4-3.43,4.63-1.06,9.35-1.7,14.04-2.53.51-.09,1.01-.19,1.5-.35,4.38-1.41,8.78-2.75,13.12-4.27,3.03-1.06,6.03-2.27,8.95-3.6,3.18-1.44,6.27-3.09,9.39-4.65,5.18-2.59,10.33-5.26,15.56-7.74,4.69-2.23,9.49-4.49,14.82-4.21,2.76.14,5.44,1.5,8.2,1.74,4.49.39,8.93.49,13.36,1.85,4.52,1.38,9.33,1.81,14.01,2.67.5.09.96.35,1.46.47,5.68,1.4,11.17,3.69,17.18,3.55,1.86-.05,3.75.16,5.59.45,2.83.44,5.61,1.36,8.45,1.52,4.53.26,9.08.16,13.62.05,2.82-.07,4.58,1.24,6.17,3.42.87,1.18,2.3,2.23,3.69,2.66,1.75.55,3.74.26,5.58.6,2.9.52,5.79,1.17,8.63,1.95,1.87.51,3.63,1.4,5.46,2.06,3.13,1.13,6.26,2.24,9.4,3.32,2.94,1.01,5.86,2.66,8.87,2.83,7.08.42,14.21.16,21.32.1,1.34-.01,2.73-.26,4.02-.64,5.36-1.59,10.61-3.56,16.34-3.47,3.43.05,6.68.49,10.05,1.41,3.54.97,7.46.52,11.22.69,0,13.55,0,27.1-.23,40.9-5.56-.22-10.12,2.85-15.15,3.53-4.15.57-8.43.36-12.64.17-2.26-.1-4.51-1.34-6.74-1.28-10.51.28-21.2-1.67-31.44,2.57-3.11,1.29-6.56,1.74-9.83,2.65-3.84,1.06-7.61,2.46-11.5,3.25-5.15,1.05-10.39,1.65-15.59,2.46-.51.08-1.07.1-1.5.33-3.16,1.75-6.62,1.32-10.02,1.55-2.43.17-4.82.95-7.23,1.45-.75.16-1.49.38-2.25.49-7.45,1.01-14.39-2.73-21.78-2.32-.23.01-.5-.14-.71-.27-6.6-3.93-14.69-4.44-20.97-9.13-1.77-1.32-3.62-2.52-5.43-3.79-4.16-2.92-8.55-5.58-12.44-8.83-6.67-5.58-13.04-11.52-19.53-17.32-2.87-2.57-5.5-5.45-8.61-7.68-5.03-3.61-10.87-5.61-16.78-7.38-3.64-1.09-7.25-1.2-10.86-.03-3.81,1.24-7.52,2.88-11.39,3.84-7.7,1.91-13.6,7.01-20.15,10.93-4.45,2.66-8.66,5.72-13.17,8.27-4.07,2.31-8.34,4.3-12.63,6.19-3.65,1.61-7.36,3.52-11.22,4.11-5.26.8-10.57.92-15.89,2.07-5.39,1.16-11.08.71-16.67,2.12-5.15,1.3-9.43,3.37-13.01,7.06-6.78,7-13.21,15.4-22.62,19.1-5.25,2.07-9.99,4.71-16.16,3.98-1.45-.17-3,.56-4.5.85-1.91.38-3.81,1.03-5.73,1.05-9.34.11-18.68.09-28.01.04-3.71-.02-6.76,1.03-9.38,3.86-4.01,4.34-8.43,8.29-12.46,12.62-3.06,3.29-6.82,5.43-10.81,7.16-2.06.9-4.41,1.15-6.64,1.63-3.24.7-6.47,1.75-9.75,1.93-5.81.32-11.65.12-17.47.08-3.34-.02-3.68-.38-4.12-3.83.13-1.8-1.09-1.75-2.36-1.79-3.12-.1-3.47-.64-2.27-3.39.53-1.2.18-1.79-1.11-1.85-.6-.03-1.21.07-1.78-.06-.69-.16-1.84-.42-1.9-.77-.13-.81.22-1.72.52-2.55.29-.8.74-1.54,1.13-2.31-.86-.23-1.72-.63-2.59-.66-2.68-.09-4.68-1.41-6.25-3.38-1.46-1.82-1.08-3.04.96-4.19.58-.33,1.08-.82,1.87-1.4.51-.53.76-.9,1-1.27-.32-.15-.64-.31-.96-.46-2.22-.07-4.71.9-6.36-1.42-.58-.82-.92-1.9-1.05-2.9-.03-.21,1.34-.56,2.01-.94.3-.17.46-.56.72-1.17.11-1.2.54-2.25.2-2.91-2.91-5.6-8.36-6.42-12.95-2.1-1.42,1.33-2.84,2.77-4.52,3.68-1.5.81-2.22,1.74-2.18,3.36-.1.21-.19.41-.4.87.95.48,2.02.72,3.09.96.05,2.23-1.45,3.42-4.73,3.68-.93.07-1.87,0-3.15.05-.28.4-.22.74-.16,1.09,2.13,1.27,4.26,2.54,6.57,3.92.54-.37,1.17-1.03,1.94-1.24.65-.18,1.72-.08,2.11.34.39.43.51,1.65.17,2.11-.85,1.15-1.86,2.37-3.1,3.01-1.57.81-2.78,1.16-1.91,3.46.19.5-2.12,2.33-3.53,2.96-2.9,1.28-5.96,2.2-8.99,3.18-.88.28-1.85.28-3.11.57-1.92.97-1.62,2.14-1.01,3.42,1.59,3.34.9,4.59-2.87,4.45-6.69-.24-13.35.64-20.08-1.28-4.39-1.25-9.33-.54-14.02-.76-1.44-.07-2.88-.28-4.3-.52-2.84-.48-5.66-1.38-8.51-1.46-7.01-.22-14.03,0-21.04-.12-1.74-.03-3.49-.59-5.21-.98-4.77-1.1-9.53-1.81-14.57-.24-1.74,0-3.25-.01-4.83-.17-1.41-.83-2.71-1.59-4.09-2.17-2.57-1.08-5.17-2.1-7.79-3.05-2.03-.74-4.1-1.86-6.17-1.9-10.11-.2-20.22-.19-30.33-.03-2.96.04-5.95.6-8.84,1.26-8.35,1.9-16.17.97-23.13-4.22-3.03-2.26-6.18-3.38-9.98-3.36-17.4.09-34.79-.02-52.19.09-3.52.02-6.3-1.11-8.77-3.48-3.2-3.06-8.66-3.86-12.38-1.51-6.35,4.02-12.66,8.13-18.79,12.47-4.24,3-8.92,3.54-13.42.91-.73-.43-1.5-.81-2.27-1.16-5.91-2.65-11.85-5.21-17.72-7.94-6.05-2.82-12.04-5.58-18.96-5.7-2.55-.04-5.36-.86-7.54-2.16-3.86-2.31-7.42-5.17-10.95-7.99-3.48-2.77-6.93-3.11-10.62-.71-2.58,1.68-5.13,3.42-7.78,4.98-5.65,3.33-11.61,6.21-17,9.91-6.5,4.47-13.72,5.76-21.25,6.49-2.79.27-5.56.83-8.34,1.25-1.76.27-3.53.75-5.29.76-11.74.07-23.48.13-35.22-.02-3.29-.04-6.58-.79-9.86-1.22-2.03-.26-4.05-.75-6.08-.76-12.77-.07-25.54-.08-38.31,0-2.54.02-5.07.57-7.61.87-3.29.39-6.57.91-9.88,1.13-2.9.19-5.84-.18-8.73.08-9.82.88-19.42-1.03-29.03-2.33-7.21-.97-13.86-4.11-20.61-6.72-3.97-1.53-7.82-3.43-11.87-4.68-4.57-1.4-9.37-2.06-13.95-3.42-3.33-.98-6.7-2.2-9.66-3.96-6.27-3.73-11.78-8.47-16.76-13.85-4.36-4.71-8.85-9.28-15.07-11.69-5.02-1.95-9.95-4.02-15.44-4.29-5.89-.29-11.51.84-17.21,2.24-4.69,1.15-8.59,3.17-11.94,6.51-3.09,3.08-5.98,6.49-10.32,7.82-5.77,1.76-11.53,4.2-17.43,4.68-6.49.53-11.86,3.16-17.04,6.28-6.43,3.87-12.39,8.5-18.56,12.81-3.09,2.15-6.08,4.46-9.29,6.42-2.6,1.58-5.37,3.67-8.21,3.93-9.03.81-17.27-1.48-23.86-8.27-1.33-1.37-3.02-2.6-4.78-3.3-2.61-1.03-5.41-1.61-8.16-2.22-5.42-1.2-10.88-2.22-16.29-3.44-5.17-1.16-10.32-2.42-15.45-3.76-2.64-.69-5.24-1.58-7.81-2.51-6.48-2.35-12.87-4.99-19.43-7.09-5.35-1.71-10.92-2.71-16.34-4.2-3.75-1.03-7.39-1.43-11.04.25-3.16,1.46-6.43,2.73-9.47,4.4-6.8,3.72-13.51,7.62-20.22,11.5-2.59,1.5-5,3.31-7.64,4.69-5.21,2.72-10.52,5.23-15.79,7.85-5.05,2.51-10.25,3.07-15.64,1.23-5.59-1.91-11.14-3.71-17.24-3.27-5.03.36-10.12.33-15.16.01-7.89-.5-14.84,2.26-21.34,6.05-7.75,4.52-15.83,8.27-24.09,11.67-1.48.61-3.07,1.24-4.63,1.29-4.36.15-8.74,0-13.15-.21.24-1.23.6-2.25.8-3.29.1-.53-.1-1.11-.16-1.66,0,0-.12-.16-.15-.46-.37-3.61-2.75-5.19-5.32-6.67-2.12-1.22-3.91-.92-5.85.46-2.27,1.61-4.72,2.96-7.08,4.44-2,1.25-3.98,2.52-6.14,3.84-.63.93-1.58,1.89-1.44,2.66.36,2.03-.41,2.65-2.24,2.7-.75.02-1.49.29-2.24.44-.18.02-.36.05-.82.1-.58.3-.86.58-1.15.86,0,0-.02-.02-.14.04-.07.52-.02.98.03,1.44.11.14.23.28.51.68,1.56,1.04,2.95,1.85,4.36,2.62,1.34.74,2.69,1.44,4.03,2.16-1.08,1.06-2.17,2.12-3.25,3.18M46.46,201.88c.69-1.45-.2-1.92-1.35-1.79-.53.06-.96.86-1.44,1.33.84.23,1.68.47,2.79.46Z" style="fill: #306370; opacity: .87; stroke-width: 0px;"/>
  <path d="M1920.68,277.53v-100.04c-3.53.91-7.16,1.55-10.57,2.78-7.22,2.6-14.4,2.47-21.66.39-.33-.09-.62-.35-.95-.38-8.41-.88-16.83-1.68-25.17.53-4.11,1.09-8.21,2.25-12.31,3.39-3.77,1.04-7.5,2.26-11.32,3.1-5.23,1.16-10.52,2.04-15.78,3.05-1.74.34-3.46.78-5.21,1.06-2.35.39-4.72.64-7.08,1.01-2.91.45-5.82.96-8.73,1.45-1.01.17-2.02.51-3.03.52-4.03.06-8.19.66-12.05-.14-5.01-1.05-10.01-1.82-15.09-2.39-1.52-.17-2.9-1.4-4.41-1.96-4.08-1.53-8.19-2.95-12.28-4.44-.8-.29-1.65-.55-2.33-1.04-5.95-4.27-12.02-8.39-17.75-12.94-4.86-3.86-9.27-8.3-13.97-12.37-5.74-4.97-11.33-10.18-17.49-14.59-3.51-2.52-7.97-3.75-12.08-5.39-1.96-.78-4.12-1.74-6.11-1.59-3.26.25-6.55,1.09-9.66,2.16-4.66,1.61-9.25,3.46-13.71,5.55-2.98,1.4-5.68,3.4-8.51,5.13-3.12,1.91-6.24,3.82-9.34,5.76-2.46,1.54-4.76,3.39-7.35,4.65-6.98,3.38-14.07,6.52-21.12,9.74-.31.14-.65.22-.99.26-7.85.88-15.71,1.7-23.55,2.63-2.34.28-4.67.74-6.98,1.25-2.9.64-6.05.89-8.59,2.25-3.25,1.73-6.12,4.24-8.93,6.68-5.09,4.41-9.68,9.45-15.1,13.38-4.36,3.16-9.63,5.05-14.5,7.5-.23.11-.48.2-.73.23-6.23.88-12.44,2.21-18.69,2.51-9.15.43-18.33.12-27.5.11-4.06,0-7.2,1.6-9.5,5.01-.95,1.4-2.27,2.56-3.47,3.77-3.01,3.04-5.78,6.4-9.14,9-1.52,1.18-3.07,2.37-4.67,3.43h-1.29v.82c-3.18,1.92-6.64,3.29-10.7,3.22-.76-.01-1.65-.06-2.27.29-4.92,2.76-10.3,2.1-15.57,2.18-3.77.05-7.55.18-11.31-.07-1.75-.12-3.43-1.13-5.18-1.57-.99-.25-2.08-.28-3.1-.17-1.08.11-2.13.51-3.41.96.3,1.02.81,1.87,1.33,2.73-2.96,1.08-3.85.71-4.93-2.03-.71-1.79-1.61-3.34-4.44-3.61.48,1.37.79,2.5,1.26,3.56.48,1.07,1.37,1.95-.04,3.13-.13.11-.22.32-.29.58h-27.94c1.77-1.75,3.32-3.8,4.7-6.07-.83-1.46-1.76-1.68-3.31-.72-1.01.62-3.04,1.23-3.55.74-1.59-1.52-3.34-1.38-5.2-1.59-.87-.1-1.65-1.02-2.47-1.56-.06-.28-.12-.56-.26-1.11-.31-.84-.54-1.41-.92-1.93-1.73.86-1.44,2.04-.83,3.31,1.59,3.34.9,4.59-2.87,4.45-6.69-.24-13.35.64-20.08-1.28-4.39-1.25-9.33-.54-14.02-.76-1.44-.07-2.88-.28-4.3-.52-2.84-.48-5.66-1.38-8.51-1.46-7.01-.22-14.03,0-21.04-.12-1.74-.03-3.49-.59-5.21-.98-4.77-1.1-9.53-1.81-14.34-.24,0,0,.18.18.5.27,5.3-.38,9.89,2.46,14.86,2.18-4.97.28-9.55-2.55-14.76-2.11-2.21,2.57-4.85,2.95-8.16,1.02-1.25-.73-2.33-1.36-3.57-2.07-.78,2.61-2.37,3.46-6.85,3.36.31-1.16.6-2.24.99-3.44-1.19-3.08-3.4-4.63-6.69-4.63-10.2.02-20.39,0-30.59.01-.77,0-1.67-.12-2.28.23-4.79,2.76-10.06,1.28-15.08,1.87-7.55.9-13.38-2.75-19.1-6.68-2.01-1.38-3.93-2.16-6.37-2.16-18.51.06-37.02,0-55.53.05-2.43,0-4.45-.48-6.24-2.33-3.74-3.87-5.88-3.75-10.31-.43-3.52,2.64-7.31,4.93-10.98,7.37-2.47,1.65-4.83,3.52-7.45,4.9-4.33,2.28-9.26,2.21-13.44.5-9.93-4.07-19.45-9.12-29.3-13.39-3.51-1.52-7.49-2.5-11.3-2.64-3.77-.13-7.11-.98-10.16-2.89-3.16-1.98-6.16-4.23-9.07-6.57-2.42-1.95-4.41-2.24-6.96-.52-2.18,1.47-4.33,3.01-6.6,4.34-4.71,2.75-9.52,5.33-14.22,8.09-1.68.99-3.02,2.63-4.77,3.39-2.54,1.1-5.48,1.31-7.94,2.54-4.91,2.44-10.42,1.16-15.21,2.58-10.53,3.13-21.09,1.13-31.6,1.66-7.35.37-14.74.15-22.1.01-1.9-.04-3.79-.79-5.68-1.18-1.41-.29-2.83-.77-4.24-.77-12.85-.06-25.71-.04-38.56-.02-1.1,0-2.39-.06-3.26.46-3,1.8-6.25,1.57-9.49,1.57-9.94,0-19.88.07-29.82-.06-2.07-.03-4.11-.89-6.18-1.28-1.66-.31-3.37-.41-5.03-.73-2.64-.5-5.27-1.09-7.9-1.68-.83-.18-1.64-.47-2.46-.7-2.52-.72-5.08-1.3-7.54-2.17-3.59-1.28-7.34-2.36-10.61-4.25-4.58-2.64-9.6-3.26-14.52-4.58-5.31-1.43-10.47-3.5-15.58-5.57-7.87-3.19-13.78-9.04-19.34-15.17-4.69-5.17-10.02-9.33-16.59-11.72-5.19-1.89-10.53-4.24-16.13-2.83-7.46,1.89-15.63,2.5-20.75,9.67-3.29,4.6-8.58,6.53-13.44,8.64-3.65,1.58-7.87,2.26-11.88,2.47-3.85.2-7.4.67-10.81,2.53-2.08,1.14-4.43,1.78-6.59,2.8-1.46.68-2.81,1.59-4.18,2.45-2.14,1.35-4.28,2.69-6.35,4.13-.92.64-1.75,1.45-2.52,2.26-.46.48-.64,1.52-1.12,1.65-2.87.76-5.09,2.4-7.16,4.45-.97.96-2.38,1.48-3.51,2.3-5.17,3.76-9.82,8.66-17.17,7.43-1.25-.21-2.57-.07-3.85-.02-6.39.25-11.99-2.25-17.37-5.23-1.27-.7-1.94-2.49-3.04-3.72.07,1.19.26,2.33.52,3.45.17.72.85,1.6.62,2.08-1.19,2.46-.45,4.59.47,6.7h-2.86v-11h-.85c0-.05,0-.1,0-.16,0-.9.61-1.8.94-2.7-2.71-.92-5.39-1.97-8.14-2.74-4.39-1.23-8.82-2.35-13.27-3.35-2.02-.46-4.14-.52-6.22-.73-.5-.05-1.06.14-1.52,0-6.59-2.16-13.1-4.56-19.75-6.48-5.33-1.54-10.51-3.35-15.64-5.45-4.6-1.88-9.56-2.89-14.38-4.22-.98-.27-2.04-.18-3.04-.38-2.15-.42-4.27-1.02-6.43-1.35-1.27-.19-3.23-.54-3.81.12-2.95,3.38-7.52,3.09-10.94,5.27-1.08.68-2.16,1.37-3.29,1.95-1.63.83-3.3,1.58-4.97,2.34-.77.35-1.64.53-2.35.98-2.23,1.39-4.39,2.91-6.62,4.3-3.32,2.06-6.58,4.24-10.04,6.04-5.76,3.01-11.59,5.89-17.52,8.54-2.05.92-4.46,1.2-6.74,1.38-2.63.21-5.29-.02-7.94-.05-3.06-.03-5.69-1.21-8.49-2.44-3.19-1.4-6.88-2.03-10.4-2.24-4.59-.27-9.23.21-13.85.34-6.59.18-12.62,1.93-18.39,5.29-3.69,2.15-6.81,5.55-11.47,6.01-.88.09-1.66,1.13-2.51,1.7-.84.57-1.66,1.23-2.59,1.61-2.11.88-4.42,1.37-6.41,2.47-2.98,1.65-6.05,2.14-9.37,2.02-1.32-.05-2.66.46-4.17,1-1.43,1.16-2.69,2.02-3.92,2.92-.01,0-.03.02-.04.03h-22.91v17h-30.27c-.15-.33-.29-.66-.45-.99.73-.32,1.44-.85,2.2-.92,2.64-.25,5.29-.35,7.93-.51-3.27-1.81-6.53-3.63-9.8-5.44-.67-.37-1.3-.85-2.01-1.09-4.01-1.33-8-2.76-12.08-3.84-1.94-.52-4.08-.22-6.1-.53-1.98-.3-3.9-.98-5.87-1.33-1.91-.34-3.9-.82-5.79-.62-4.98.53-9.13-1.31-13.28-3.71-5.05-2.92-10.23-5.39-16.43-4.67-4.2.49-8.61-.67-12.57,1.58-1.39.79-2.89,1.56-3.97,2.69-1.95,2.04-4.05,3.47-6.88,4.15-4.09.98-8.06,2.4-12.09,3.63-.33.1-.67.25-1,.22-4.12-.32-7.9.89-11.68,2.74.57.7,1.14,1.39,1.72,2.07l-8.77,1.88c1.35-1.14,2.58-2.45,3.67-4.01-1.89.19-3.79.34-5.67.58-.48.06-.91.52-1.4.62-4.82,1-9.66,1.9-14.47,2.95-6.44,1.41-12.98,2.73-17.41,8.28-2.24,2.8-4.71,3.42-8.12,1.52-.31.79-.49,1.68-.19,2.35.94,2.12,2.92,4.01,2.45,6.38h-4.64v13h-.37c.33-2.3-1.25-3.64-4.34-3.9-.9-.08-1.73-.94-2.59-1.45.03-.05.06-.09.1-.14.96-.95,1.79-1.78,2.62-2.6.75-1.25,1.51-2.51,2.4-4.01-.19-.64-.52-1.04-1.02-1.39-2.17,2.31-4.47,4.38-6.12,6.88-3.04,4.61-5.69,9.47-8.5,14.23.24.08.47.16.99.26.51-.05.73-.13,1.04-.34,1.2-1.87,2.35-3.66,3.5-5.44-1.13,1.78-2.24,3.59-3.26,5.49,1.6.27,3.08.19,4.48.48.03,0,.05,0,.07.01v7.92H25.04c.14-.66,0-1.48.05-2.19-.77.17-1.61.19-2.28.55-.72.39-1.37,1.34-2,1.64H0v107h1921v-127h-.32ZM174.89,241.27c.06-.26.11-.52.16-.78.25.04.5.07.74.11.03.15.07.3.1.45l-1.01.22ZM387.92,228.53c.34-.15.67-.14,1.01,0h-1.01ZM730.17,223.53h-.17v-1.33c.28.07.56.13.84.2-.22.38-.45.75-.67,1.13ZM1245.55,238.53c.08-.08.16-.14.24-.22.32-.33,1.09-.29,1.66-.33,2.41-.14,4.82-.21,7.23-.37.95-.06,2.26.32,3.48.92h-12.61ZM1317.17,238.53c.58-1.86.93-3.75.49-5.82-1.54-.41-3.07-1.11-4.62-1.17,1.55.06,3.08.76,4.8,1.1,2.4.04,3.77,1.71,3.75,3.89,0,.66,0,1.32.02,1.99h-4.45ZM1669.71,196.53c.14-.14.27-.25.36-.24.79.06,1.59.14,2.38.24h-2.74Z" style="fill: #20454f; stroke-width: 0px;"/>
  <path d="M1920.68,289.59c0,1.22,0,2.44-.07,4-.24.85-.62,1.39-.55,1.87.29,2.02-1.14,2.7-2.55,2.87-3.26.39-6.56.47-10.03.69-.83,3.58-1.83,3.79-9.05,1.79-1.28.86-2.64,1.57-4.08,2-.83.25-1.78.07-2.68.08.37,1.05.55,2.22,1.15,3.11.49.71,1.44,1.15,2.26,1.58,1.57.81,3.57,1.16,4.73,2.35,3.54,3.61,7.65,2.99,11.92,2.31.76-.12,1.86.17,2.35.69.33.35.1,1.64-.31,2.19-2.05,2.72-4.63,4.4-9.05,2.79.78,1.44.97,2.22,1.47,2.63,2.44,2,4.87,4.02,8.34,3.89,2.04-.07,4.1.08,6.14.14,0,4.64,0,9.28-.18,14.23-1.94.13-3.8-.84-5.28,1.1-.22.29-.98.14-1.48.24-2.7.5-4.74-.95-6.87-2.22-.66-.39-1.89-.84-2.26-.54-1.88,1.58-3.65.72-5.53.18-.63-.18-1.37.03-2.07.05.29.71.41,1.89.89,2.06,2.03.73,4.14,1.33,6.27,1.64,2.22.33,4.97-.78,5.68,2.69.05.24.59.33.81.58,2.71,3.08,6.23,3.51,10.01,3.12,0,8.58,0,17.17-.23,26.02-5.73-.61-11.23-1.49-16.72-2.38.6,1.19,1.43,2.29,2.5,2.63,1.46.47,1.71,1.35,2.29,2.59.85,1.84,2.23,4.01,3.94,4.74,2.49,1.06,5.47.97,8.23,1.37v21.06H.68c0-13.56,0-27.1.23-40.9,2.7-.51,5.37.08,7.6-1.92-.33-.43-.53-.84-.85-1.07-1.4-.98-2.98-1.75-4.21-2.9-.6-.55-.58-1.76-.85-2.68.74-.14,1.48-.39,2.22-.4,1.36-.02,2.74.19,4.09.11.57-.03,1.12-.56,1.67-.86-.51-.44-.96-.98-1.53-1.31-.73-.42-1.7-.51-2.31-1.04-.81-.69-1.37-1.67-2.04-2.52,1-.48,1.95-1.22,3-1.39,1.88-.3,3.81-.25,5.72-.35.09-.24.17-.47.26-.71-.53-.59-1.07-1.16-1.58-1.77-.66-.78-1.7-1.51-1.85-2.39-.46-2.79-1.72-2.58-3.75-1.55-1.87.95-3.93,2.07-5.83-.09,0-4.13,0-8.25.18-12.73,2.81-1.2,5.62-1.71,8.04-2.98,2.84-1.49,5.49-3.46,7.91-5.59,1.28-1.12.3-2.64-1.58-2.82-.61-.06-1.22-.18-1.58-.24,1.2-1.47,3.2-2.81,3.28-4.24.16-3.07-3.35-1.05-4.85-2.49.46-.35.75-.7,1.12-.84,5.12-1.92,8.96-5.36,11.68-10.03.41-.7.17-1.77.23-2.68-.77.17-1.61.19-2.28.55-.88.48-1.63,1.78-2.4,1.75-2.29-.1-3.9,1.29-5.84,1.94-1.47.49-3.6,1.45-4.77-.49-.93-1.54-1.79-1.43-2.85-.57-1.9,1.53-4.05,1.58-6.29,1.35,0-1.9,0-3.8.19-5.95,2.18-1.63,4.2-2.96,6.14-4.42.37-.28.65-1.14.49-1.52-.17-.4-.92-.72-1.44-.76-1.79-.14-3.58-.15-5.37-.21,0-.71,0-1.43.22-2.46,2.94-.43,5.81-.04,8.34-.79,3.5-1.04,6.75-2.93,10.1-4.49.83-.39,1.97-.71,2.33-1.4.95-1.85,2-3.51,3.69-4.79.39-.3.45-1.59.14-2.1-.28-.45-1.34-.7-1.97-.59-1.72.29-3.5.6-5.08,1.31-1.54.69-2.4.45-3.01-1.03-.52-1.28-1.16-1.54-2.55-.87-2.91,1.4-5,.54-6.48-2.14-.39-.7-1.2-1.17-1.78-1.94.19-.38.33-.7.52-.74,4.84-1.1,9.69-2.16,14.54-3.25,1.14-.26,2.24-.78,3.38-.86,2.55-.18,3.31-1.18,2.48-3.61-.22-.63-.53-1.23-.6-1.86.58-.05.97-.1,1.55-.08,1.43-.62,2.67-1.3,4.09-1.99,1.95-.42,2.84-1.56,2.32-3.28-.14-.47-1.52-.91-2.22-.78-1.34.25-2.6.92-4.14,1.39-.56-.04-.88-.07-1.31-.18-1.41-.69-2.71-1.3-4.12-2.04-.56-.19-1.01-.26-1.55-.49-.3-.6-.51-1.03-.74-1.49,1.78-.42,3.41-.75,5.01-1.2,1.36-.39,3.22-.58,3.84-1.52.46-.7-.72-2.47-1.14-3.68,1.78-.13,3.77.04,5.57-.48,3.43-.98,6.93-2.1,8.22-6.28-.21-.81-.38-1.93-.62-1.95-1.37-.08-2.74.11-4.32.22,1.07-1.13,2.16-2.18,3.11-3.34.39-.48.86-1.41.66-1.74-.33-.54-1.15-.94-1.83-1.07-1.73-.33-3.51-.45-5.25-.73-.36-.06-.85-.36-.96-.66-.1-.3.13-1.01.35-1.08,4.09-1.2,5.05-4.28,5.43-8.08.16-1.59.24-2.47-1.42-2.79-1.24-.24-1.82-.92-.88-1.91,2.67-2.82,5.89-5.24,6.15-9.38,1.34,1.64,2.52,3.16,3.78,4.6.88,1.01,1.02,1.88-.41,2.32-2.56.78-1.66,2.52-1.24,4.12.17.63.44,1.25.75,1.83,1.33,2.53,2.68,5.04,4.03,7.55.35.66.71,1.32,1.06,1.98-.88.08-1.84.45-2.61.2-2.8-.91-3.21-.72-3.55,2.13-.06.5-.1,1.03-.27,1.5-1.24,3.46-.94,4.61,1.96,7.27.86.92,1.65,1.69,2.42,2.45-.99,1.65-.75,3.92.69,4.82,2.83,1.77,5.59,3.76,9.25,3.5.63-.05,1.33.89,1.86,1.49-.7.32-1.25.54-1.94.81-.36.28-.57.5-1.01.71-1.26.31-2.31.64-3.35.96.52,1.08.97,2.2,1.6,3.21.29.46.91.78,1.44,1.01,3.6,1.59,7.28,2.83,11.39,2.32.21.27.34.41.45.73-.03.42-.05.66-.22.95-.75.35-1.34.64-1.91.94.02.01-.01-.02-.15.05-.38.37-.62.68-.91,1.17.34.54.72.9,1.21,1.36.37.24.62.39.88.53,0,0,0,0,.11.15,1.77.35,3.43.54,5.1.94.03.46.04.73-.07,1.08-.3.32-.47.55-.59.83.06.05-.05-.06-.18.03.03.72.18,1.35.33,2,0,.03.06.03.16.19,1.89.32,3.68.48,5.52.82.29,2.22-1.05,2.78-2.68,2.93-1.25.11-2.51.06-3.88-.03-.77-.03-1.42.05-2.13.13-.07,0-.17.1-.32.19-.18,1.25-.21,2.4-.27,3.73-.03.42-.05.67-.27.97-1.12.06-2.02.05-2.99-.09-.44-.48-.81-.82-1.25-1.3-.46-.28-.84-.41-1.34-.69-1.13-1.02-2.14-1.91-3.49-3.08-.2,1.49-.32,2.39-.67,3.28-1.3,0-2.37.02-3.57-.13-2.16-1.02-4.18-1.92-6.26-2.68-.33-.12-.9.39-1.41.77-.02,1.04.02,1.93.03,3.01,1.7,1.6,3.26,3.29,5.16,4.36,3.65,2.05,7.55,3.66,11.24,5.66,1.07.58,2.1,1.72,2.56,2.84,1.3,3.18,4.06,2.15,6.44,2.56.36-.06.62-.18,1.05-.33.4-.11.62-.19,1.08-.21,1.68.14,3.16.05,4.56.35,5.59,1.16,7.98-1.8,10.08-6.14,1.68-3.48.16-5.5-3.72-5.83-.91-.08-1.74-.96-2.49-1.59.96-.95,1.79-1.78,2.8-2.6.91-1.31,1.64-2.62,2.37-4.1-.33-.56-.66-.96-.98-1.55.06-.72.1-1.24.3-1.84.38-.56.6-1.05.96-1.67.33-.92.52-1.71.77-2.64.09-.33.14-.52.35-.81.54-1.5.91-2.9,1.28-4.3q1.78.64,1.54,3.21c-.1.85-.29,1.74.01,2.41,1.2,2.7,4.12,5.04,1.42,8.47-.31.4-.03,1.54.32,2.13.64,1.09,1.58,2,2.3,3.06.34.5.46,1.16.68,1.75-.65.22-1.3.47-1.97.65-.67.18-1.74.1-1.95.5-.32.61-.32,1.68.03,2.27.84,1.46,1.91,2.8,2.97,4.12.92,1.14.87,1.92-.18,3.08-.76.85-1.35,2.33-1.2,3.41.25,1.72,1.22,3.33,1.81,5.01.68,1.93,2.06,2.4,3.98,2.5,5.37.29,10.25-1.1,14.98-3.55,2.99-1.55,4.95-3.37,4.26-6.69-2,0-4.39.72-5.71-.16-2.16-1.44-4.25-1.38-6.53-1.55-1.19-.09-2.74-.39-3.44-1.19-1.34-1.55-2.19-3.52-3.32-5.46.6-.24,1.05-.6,1.49-.58,6.52.41,12.29-2.51,18.34-4.16.61-.17,1.56-1.34,1.47-1.49-1.71-2.79.53-2.86,2.2-3.44,1.84-.64,3.78-1.22,5.1-3.76-1.47.18-2.34.32-3.22.39-.82.07-1.74.31-2.46.06-1.98-.7-3.91-1.56-5.79-2.5-.82-.41-1.57-1.06-2.18-1.76-1.14-1.29-.83-2.24.93-2.37,1.79-.14,3.61.04,5.38-.15,1.01-.11,1.96-.69,2.98-1.07-1.11-1.44-1.85-2.41-2.6-3.38.92-.54,1.77-1.38,2.76-1.56,5.97-1.1,10.88-3.83,14.63-8.86,1.12-.01,2.01-.03,2.99.12,2.77,3.15,5.46,6.13,8.35,9.34-.89.34-1.92.53-2.68,1.09-.45.33-.49,1.23-.71,1.88,2.66.71,5.31,1.47,7.98,2.11.78.19,1.65.04,2.47.05-.44.83-.77,1.75-1.36,2.45-.4.49-1.2.63-1.76,1.01-.81.55-2.26,1.27-2.19,1.73.14.92,1.03,1.81,1.78,2.55,2.41,2.37,5.62,2.16,8.64,2.61.92.14,1.76.75,2.64,1.15-.48.81-.8,1.81-1.48,2.38-1.22,1.02-1.35,1.93.15,2.44,2.41.83,4.89,1.07,6.97-.92,1.99-1.91,3.63-3.94,4.08-6.89.32-2.13-.36-2.82-2.3-2.98-1.37-.11-2.72-.46-4.08-.7.9-.93,1.76-1.9,2.7-2.8,2.25-2.15,2.32-3.5.78-6.18-.43-.75-.36-2.21.09-2.98,1.61-2.71,2.66-5.48,2.61-8.68-.02-1.38.44-2.76.69-4.15.25.04.5.07.74.11.57,2.96,2.99,5.55,1.48,8.95-.24.54.39,1.43.54,2.17.42,1.97,1.58,4.23,1.01,5.87-.91,2.61-.31,4.29,1.39,5.97,1.61,1.59,1.07,2.42-.87,3-2.42.73-2.85,2.23-1.21,4.11.78.9,1.66,1.73,2.52,2.57,1.17,1.13,1.11,2.01-.1,3.22-.75.76-1.41,2.22-1.22,3.2.65,3.51,1.59,6.97,4.41,9.57.55.51.88,1.71.7,2.43-.12.45-1.38.65-2.15.87-.87.24-2.11.07-2.6.61-3.09,3.46-2.42,7.51,1.54,10.04.86.55,1.94.83,2.67,1.5.73.67,1.61,1.66,1.64,2.53.06,2.13,1.18,2.66,2.81,2.14,2.24-.71,4.41-1.69,6.54-2.71.53-.25.77-1.09,1.14-1.66-.68-.23-1.34-.54-2.04-.68-1.8-.37-3.73-.41-5.37-1.12-.92-.4-1.38-1.87-2.05-2.85,1.08-.44,2.18-1.3,3.24-1.26,6.68.3,13.04-.32,18.99-3.93,2.6-1.58,4-3.44,4.49-6.22-.28-.2-.4-.35-.55-.39-.24-.06-.53-.13-.74-.06-2.48.84-4.9,1.64-6.96-.98-.29-.37-1.3-.27-1.97-.25-5.52.22-7.64-1.21-9.71-6.35,7.12-1.76,14.29-3.53,21.49-5.31-1.17-3.74-.91-4.25,2.07-5.02.5-.13,1.11-.04,1.5-.3,1.12-.73,2.15-1.6,3.21-2.41-.15-.3-.31-.59-.46-.89-1.01.21-2.01.45-3.02.61-.73.12-1.61.42-2.2.15-2.23-1.03-4.42-2.16-6.5-3.47-.65-.41-.9-1.47-1.33-2.23.76-.41,1.48-1.06,2.27-1.17,1.69-.22,3.43-.08,5.12-.26.59-.06,1.41-.55,1.59-1.04.15-.41-.44-1.13-.78-1.66-.45-.72-.97-1.39-1.46-2.08.88-.42,1.73-1.11,2.65-1.22,5.81-.73,10.42-3.51,14.02-8.03,1.24-1.56,2.26-1.82,3.71-.25,1.96,2.13,4.12,4.09,6.12,6.19.85.89,1.54,1.94,2.3,2.91-.98.38-1.97.75-2.94,1.15-.22.09-.38.31-.71.57.28.42.45.95.82,1.2,2.25,1.5,4.64,2.32,7.43,1.69.86-.19,1.86.21,2.8.34-.45.84-.77,1.81-1.4,2.49-.55.58-1.5.77-2.19,1.25-.81.55-1.54,1.22-2.3,1.84.7.78,1.26,2,2.12,2.27,3.7,1.19,7.53,3.04,11.22,2.84,3.48-.19,6.85-2.61,10.21-4.17.51-.24.93-1.1,1-1.72.11-.97.19-2.19-.31-2.88-.31-.44-1.7-.09-2.6-.13-.95-.04-1.93,0-2.85-.19-1.44-.31-2.85-1.19-4.25-1.14-3.01.09-5.16-.79-6.25-3.76-.22-.6-.88-1.03-1.23-1.6-.38-.61-.64-1.29-.95-1.94.73-.32,1.44-.85,2.2-.92,2.64-.25,5.29-.35,8.16-.48,4.89.31,8.68-1.92,12.7-4.34-.6-.71-1.12-1.32-1.65-2.08-.03-.25-.03-.35.15-.51,2.05-.59,4.05-.83,5.71-1.72,1.37-.74,3.29-2.02,2.25-3.92-.38-.68-2.59-.39-3.97-.48-.97-.06-1.98.14-2.91-.07-2.17-.48-4.3-1.14-6.52-1.84-.18-.26-.29-.4-.41-.73.03-.55.07-.92.09-1.3,0-.01.02,0,.16-.04.44-.31.73-.57,1.16-.84.31-.03.49-.05.87-.01,2.31.03,4.45.15,6.53-.1.72-.09,1.32-1.11,1.98-1.7-.57-.46-1.13-.92-1.72-1.36-.52-.4-1.06-.76-1.83-1.31,1.18-.59,1.91-.96,2.76-1.41.18-.15.25-.22.5-.29.94-.22,1.71-.43,2.64-.74,2.1-1.04,4.03-1.99,6.09-3.03.42-.38.7-.69,1.12-1.09,1.44-1.31,2.74-2.51,3.92-3.61,2.78,2.35,5.44,4.59,8.13,6.93.04.09.15.25.08.42-.41.43-.76.66-1.06.95-.81.78-1.59,1.58-2.38,2.38.95.75,1.91,1.5,2.96,2.39,3.05,2.22,6.5,1.39,9.7,2.01-1.27,1.06-2.52,1.93-3.76,2.82-.56.41-1.44.82-1.53,1.33-.1.59.35,1.55.87,1.92,1.16.83,2.45,1.63,3.81,2,2.1.58,4.33.69,6.45,1.21.82.2,1.49.98,2.23,1.5-.4.56-.83,1.1-1.2,1.67-.47.73-.89,1.49-1.32,2.24.84.27,1.67.73,2.52.78,3.88.21,3.94.24,2.99,4.41,2.17.5,4.31,1,6.44,1.49-.81,3.85-1.78,4.68-5.34,4.7-1.03,0-2.13-.23-3.06.08-.61.2-1.19,1.11-1.37,1.81-.24.96-.09,2.02-.1,3.04-1.29-.08-2.71.14-3.83-.33-1.5-.63-2.78-1.81-4.14-2.75-.93,1.4-1.92,2.51-2.43,3.81-.31.78-.21,2.37.3,2.7,2.52,1.66,5.25,3.01,7.89,4.51.99.56,1.93,1.21,2.87,1.87.99.69,1.89,1.92,2.94,2.06,2.52.32,5.13.38,7.66.1,3.09-.34,5.78-2.86,5.47-5.11-.18-1.27-1.38-2.41-2.15-3.66,1.72-1.76,3.71-3.53,5.32-5.59.66-.84.84-2.43.55-3.48-.17-.61-1.7-.9-2.66-1.22-.8-.26-1.66-.35-3.11-.64,1.14-1,1.76-1.53,2.36-2.08,1.61-1.47,2.95-2.94,1.11-5.24-.35-.43.02-1.53.21-2.28.59-2.35,1.29-4.68,1.87-7.03.28-1.15.4-2.34.6-3.6,4.92,2.95,2.31,8.04,4.31,11.61.27.48.23,1.15.26,1.74.01.23-.13.52-.28.7-1.26,1.53-.45,2.64.66,3.77.83.84,1.57,1.77,2.44,2.76-.73.4-.94.56-1.17.63-.9.25-1.81.47-2.72.7.46,1.11.83,2.28,1.43,3.31.32.55,1.21.76,1.53,1.31.29.51.46,1.62.18,1.85-2.36,1.9-1.63,3.92-.32,5.91,1.03,1.56,2.31,2.95,3.36,4.5.44.64.94,1.63.73,2.21-.19.54-1.29.76-2.01,1.08-.91.4-1.84.76-2.76,1.14.92.66,1.77,1.46,2.77,1.93.64.3,1.54.24,2.28.1,3.67-.69,7.41-1.19,10.95-2.31,2.28-.72,4.42-2.22,6.28-3.77.72-.6.73-2.34.6-3.51-.04-.38-1.51-.69-2.35-.9-2.96-.74-5.77-2.51-9.03-1.38-.19.06-.46-.2-.71-.25-3.94-.81-3.36-5.18-5.95-6.94,7.57-1.76,14.84-3.44,22.22-5.15-1.58-3.62-1.43-3.92,1.78-5.02,1.2-.41,2.45-.75,3.58-1.3.49-.24.74-.96,1.1-1.45-.67-.22-1.36-.66-2.01-.62-.98.07-2.13.94-2.88.64-2.58-1.03-5.06-2.36-7.49-3.73-.51-.29-.92-1.26-.87-1.88.03-.43.9-1.05,1.45-1.13,1.77-.25,3.58-.21,5.36-.43.94-.12,1.84-.54,2.61-.77-1.06-1.45-2.51-2.57-2.38-3.43.3-1.87,2.3-1.73,3.87-2.2,4.94-1.46,9.64-3.52,12.81-7.85,1.08-1.48,1.98-1.41,3.1-.32,2.68,2.62,5.32,5.28,8,7.9,1.36,1.33.85,1.98-.75,2.43-.82.23-1.58.69-2.37,1.05.74.62,1.44,1.32,2.25,1.83.48.3,1.14.41,1.72.42,2.42.04,4.85.02,7.43.02.67,3.29-2.53,3.49-4.32,4.85-.64.48-1.26.98-1.89,1.47.59.69,1.09,1.47,1.77,2.04,2.76,2.27,6.32,2.29,9.55,3.24.75.22,1.83.54,2.02,1.07.19.51-.61,1.36-.91,2.09-.27.64-.81,1.46-.61,1.94.22.54,1.11.88,1.78,1.12.45.16,1.02.02,1.52-.04,2.37-.25,2.82.17,2.12,2.36-.48,1.5.21,1.87,1.43,1.96.85.06,1.72.02,2.57.12,1.93.22,2.82,2.12,1.42,3.47-1.6,1.54-3.24,3.32-6.06,2.07-2.1-.93-2.98-.11-2.96,2.25,0,.73.15,1.45.23,2.18.18-.18.35-.35.53-.53,1.17.54,2.54.86,3.48,1.67,2.71,2.31,5.27,4.81,7.84,7.28.38.37.8,1.05.7,1.47-.1.43-.77.85-1.28,1.02-.84.28-1.75.35-2.72.52,1.41,2.85,4.39,3.68,8.38,2.76.94-.22,1.97-.02,2.96,0-.48,1.08-.75,2.34-1.49,3.19-.81.93-2.07,1.48-3.1,2.23-.51.37-.95.82-1.6,1.38,4.08,3.85,8.81,5.45,13.82,4.73,4.44-.64,8.36-3.37,11.18-6.79,1.75-2.12,3.34-2.34,5.68-2.27,4.44.14,8.97.2,12.5-3.24.65-.64,1.05-1.55,1.56-2.33-.96-.13-1.92-.33-2.89-.36-1.01-.03-2.02.12-3.02.2-.11-.27-.22-.54-.33-.81,1.55-1.61,3.1-3.22,4.81-4.99-2.72-.61-4.97-1.01-7.14-1.64-.72-.21-1.28-1.01-1.91-1.55.47-.54.85-1.32,1.44-1.57,3.21-1.35,5.12-3.6,5.08-7.16,0-.84-.28-2.07-.87-2.43-2.15-1.35-1.86-2.51-.19-3.97,1.03-.9,2.27-1.79,2.81-2.96.93-2.02,1.65-4.22,1.95-6.41.21-1.56-.99-2.38-2.74-2.14-.89.12-1.82-.15-2.74-.24.61-.76,1.1-1.68,1.85-2.25,2.08-1.57,3.24-4.88,1.77-6.17-1.68-1.47-1.09-2.63-.36-4.26,1.02-2.3,1.63-4.78,2.35-7.21.3-1,.43-2.04.64-3.06.35-.06.7-.12,1.05-.18.54,1.58,1.27,3.12,1.58,4.74.49,2.54.69,5.14,1.03,7.72.1.73.61,1.69.31,2.14-1.88,2.92-.27,4.99,1.42,7.13.38.48.51,1.17.75,1.76-.6.24-1.19.68-1.79.68-2.51.02-2.46,1.66-1.76,3.14.63,1.34,2.03,2.29,2.79,3.59.45.76.74,2.47.38,2.72-2.63,1.83-1.59,4.07-.9,6.23.38,1.21.86,2.51,1.68,3.42.87.97,2.21,2.18,3.31,2.14,3.2-.1,6.53-.34,9.54-1.34,3-1,5.72-2.93,8.46-4.62.52-.32.97-1.73.7-2.11-.54-.76-1.55-1.28-2.46-1.68-.82-.36-2.16-.1-2.6-.66-1.3-1.64-2.86-1.43-4.56-1.26-2.32.23-4.45-.11-5.8-2.35-.65-1.07-1.36-2.1-1.96-3.2-.29-.53-.7-1.38-.48-1.72.28-.45,1.11-.68,1.74-.77,3.4-.5,6.84-.77,10.21-1.42,2.74-.52,5.43-1.38,8.07-2.29.49-.17,1.07-1.48.87-1.96-.93-2.25,0-2.86,2.08-3.2,1.35-.23,2.66-.99,3.87-1.7.63-.37,1.02-1.16,1.52-1.75-.91-.05-1.82-.13-2.74-.16-1.4-.04-2.86.22-4.17-.13-1.6-.43-3.1-1.32-4.59-2.09-.74-.38-1.48-.88-2.03-1.49-.34-.37-.6-1.24-.4-1.57.31-.49,1.04-.9,1.63-.98,2.08-.28,4.2-.34,6.28-.62.66-.09,1.26-.61,1.89-.93-.45-.44-.95-.83-1.33-1.32-.48-.6-.86-1.28-1.28-1.93.61-.38,1.17-.95,1.83-1.1,5.55-1.2,10.5-3.44,14.27-7.88,1.68-1.98,2.87-1.72,4.58.22,1.79,2.02,3.9,3.76,5.86,5.63.73.7,1.45,1.42,2.36,2.31-1.78.79-3.06,1.36-4.61,2.05.65.75.94,1.4,1.4,1.57,2.71,1,5.42,2.2,8.41.81.51-.24,1.26.05,1.9.1-.15.69-.1,1.56-.5,2.02-.82.95-1.88,1.7-2.87,2.5-.71.58-2.15,1.36-2.06,1.63.35,1.02,1.02,2.36,1.9,2.68,2.6.96,5.36,1.47,8.04,2.22.84.24,2.01.53,2.28,1.13.25.55-.45,1.58-.81,2.37-.29.64-.69,1.22-1.03,1.83.74.34,1.45.9,2.21.98,4.67.49,7.93-1.67,9.39-6.08,1.17-3.53-.3-5.34-3.74-4.73-.65.12-1.4-.29-2.11-.46.25-.66.43-1.36.79-1.96.25-.42.71-.74,1.12-1.04,2.53-1.92,2.76-3.61,1.2-6.49-.39-.72-.43-2.14.03-2.71,2.72-3.37,3.22-7.25,3.18-11.37,0-.9.61-1.8,1.01-2.57.38.48.69.84.98,1.38.19,1.31.38,2.45.64,3.57.17.72.85,1.6.62,2.08-1.49,3.09.05,5.64,1.17,8.31.25.6.57,1.51.3,1.92-2.02,3.13-.65,5.26,1.81,7.25,1.41,1.14.67,1.89-.7,2.26-.48.13-1.02.04-1.53.1-1.81.22-2.55,1.03-1.38,2.73.82,1.19,1.55,2.5,2.61,3.44,1.7,1.51,1.88,2.67-.07,4.06-.59.42-1.33,1.46-1.18,1.96,1.17,3.83,2.29,7.7,5.33,10.62.53.51,1.23,1.62,1.03,1.96-.4.69-1.41,1.48-2.12,1.44-2.19-.13-3.9.59-4.26,2.68-.3,1.72-.31,3.91.52,5.31.95,1.61,2.88,2.75,4.56,3.8,1.44.9,2.32,1.62,1.35,3.43-.74,1.37-.25,2.26,1.28,2.98,2.54,1.18,5.05,1.41,7.73.83.51-.11,1.07.04,1.81.09-1.11,3.59-4.58,3.85-6.89,5.76,1.37.41,2.75.76,3.83.34,4.09-1.6,7.83-3.76,10.75-7.21,2.38-2.81,3.45-2.51,5.83.35,1.76,2.12,4,3.85,6.03,5.74.57.53,1.18,1.02,2,1.71-1.95.8-3.46,1.42-4.97,2.04,0,.37.01.74.02,1.11,1.87.63,3.7,1.59,5.61,1.8,2.02.23,4.12-.24,6.47-.43-.51,2.61-2.25,3.83-4.35,4.68-2.55,1.03-2.77,1.89-.75,3.71,2.42,2.19,5.51,2.44,8.56,2.82,1.03.13,2.01.62,3.01.95-.4.93-.7,1.93-1.23,2.78-.71,1.15-1.02,2.07.65,2.5.57.14,1.2.16,1.79.11,1.97-.16,3.39.22,3.39,2.66,0,.46.9,1.38,1.19,1.31,2.27-.55,4.84-.81,6.61-2.11,1.44-1.07,2.6-1.92,4.41-1.99.97-.04,2.03-.45,2.86-.99.9-.58,1.59-1.51,2.36-2.28-1.15-1-2.22-2.1-3.47-2.95-.87-.59-1.96-.87-2.98-1.2-.67-.22-1.47-.52-2.09-.35-2.54.72-4.97.23-6.68-1.5-1.55-1.58-2.42-3.83-3.7-5.96,3.83-.55,7.27-.92,10.66-1.58,2.66-.52,5.25-1.45,7.88-2.13,1.92-.49,3.58-1.02,2.39-3.61-.19-.41.26-1.09.37-1.65.1-.55.42-1.34.18-1.62-1.7-1.92-3.55-3.7-5.27-5.6-.51-.57-1.16-1.54-.98-2.07.18-.55,1.26-1.01,2-1.12,1.6-.24,3.27-.08,4.85-.4.6-.12,1.57-1.34,1.44-1.66-.61-1.45-1.24-3.3-2.44-4.01-3.01-1.77-1.33-2.66.25-3.94,2.88-2.34,3.04-3.7,1.41-6.79-.34-.64-.06-1.71.16-2.51.79-2.86,1.68-5.68,2.53-8.52.22-.74.44-1.48.72-2.41,2.22,1.3,2.62,2.93,2.7,4.96.09,2.4.43,4.84,1.05,7.16.4,1.49.39,2.55-.22,4.05-.46,1.12.42,2.95,1.08,4.27.24.48,1.9.86,2.34.52,1.95-1.48,3.8-3.13,5.47-4.92,1.41-1.51,2.34-1.6,3.77-.09,1.94,2.03,3.96,3.99,6.01,5.91.9.84,1.97,1.51,3.52,2.69-1.95.75-3.29,1.26-5.35,2.05,1.32.95,2.13,1.81,3.13,2.18,2.05.75,4.13,1.61,6.41.38.53-.29,1.52.26,2.3.43-.28.66-.38,1.5-.86,1.95-.98.92-2.08,1.79-3.28,2.39-2.22,1.11-2.39,1.68-.51,3.37,2.78,2.5,6.42,2.48,9.77,3.3.77.19,1.5.55,2.24.84-.39.71-.77,1.42-1.17,2.12-.39.68-.8,1.35-1.21,2.03.78.43,1.52,1.08,2.36,1.25,1.28.27,2.63.22,3.95.31-.2.2-.39.39-.59.59.5,1.12.72,2.88,1.55,3.24,3.46,1.52,6.82.2,8.64-3.14.21-.39-.38-1.75-.84-1.9-2.02-.63-1.72-1.56-.62-2.76.35-.38.78-.7,1.05-1.13.34-.54.86-1.26.72-1.73-.12-.41-1.03-.63-1.63-.84-1.39-.47-2.8-.89-4.2-1.32-.06-.28-.12-.56-.17-.83,1.08-.71,2.18-1.38,3.23-2.12,1.85-1.32,3.79-2.58,5.45-4.12.52-.48.27-1.79.37-2.72-.76.15-1.59.17-2.27.49-1.97.91-3.8,2.5-6.04.53-.3-.26-.99-.23-1.44-.13-6.09,1.44-7.32.99-10.9-4.32-.43-.64-.93-1.86-.64-2.23.46-.6,1.52-.86,2.37-1.01,1-.18,2.08.08,3.07-.13,2.24-.47,4.38-1.22,5.61-3.96-1.43-.18-2.71.01-3.52-.52-1.38-.9-3.32-2.16-3.48-3.45-.29-2.34,2.17-1.7,3.48-1.58,3.74.32,7.08-.44,10.04-2.76,1.53-1.2,3.16-2.31,4.55-3.65,1.1-1.07.72-2.42-.59-2.94-2.41-.97-4.99-1.54-7.42-2.47-1.11-.42-2.33-1.08-3-2-1.07-1.47-1.73-3.24-2.71-5.16.66-.31,1.4-1,2.1-.95,4.64.28,8.62-1.7,12.74-3.32,1.32-.52,1.85-1.14,1.47-2.44-.55-1.87.27-2.59,2.01-3.08,1.07-.3,2.01-1.19,2.89-1.95.26-.23.27-.96.12-1.37-.1-.26-.82-.59-1.03-.47-3.31,1.88-4.92-1.41-7.23-2.42-.67-.29-.99-1.4-1.47-2.14.81-.35,1.59-.8,2.43-1.01,1.71-.44,3.44-.74,5.22-1.11-.26-.86-.28-1.05-.36-1.18-.13-.22-.29-.43-.48-.6-2.4-2.12-2.31-2.33.74-3.69,3.81-1.7,7.6-3.39,9.57-7.56.88-1.87,2.17-1.71,3.58.01,1.72,2.09,3.47,4.15,5.2,6.23.88,1.05,1.05,1.83-.53,2.52-1.96.85-2.02,2.24-.19,3.24,1.01.55,2.23.74,3.36,1.05,1.02.28,2.06.51,3.09.77-.57.97-1.14,1.95-1.73,2.91-.08.14-.25.23-.4.31-2.07,1.23-1.64,2.85-.14,3.91,1.67,1.18,3.66,2.07,5.63,2.63,2.24.64,2.95,1.5,1.91,3.29q-1.53,2.65,1.46,3.19c1.51.27,2.93.93,2.1,2.66-1.13,2.38.26,2.34,1.86,2.59.84.13,2.21.58,2.3,1.07.15.83-.29,2.07-.92,2.65-.81.74-2.05,1.31-3.13,1.38-2.01.13-3.02.75-2.86,2.93.05.73-.44,2.1-.78,2.14-.89.09-1.94-.24-2.74-.71-1.04-.62-1.9-1.53-2.9-2.37-2.81,5.23-2.73,5.87,1.11,9.21,1.81,1.57,4.48,2.37,4.7,5.35.01.16.39.3.6.44,2.01,1.35,3.75.97,5.45-1.2,1.72-2.2,2.3-2.24,4.21-.29.36.37.66.83,1.08,1.09,2.48,1.53,5.29,2.52,6.76,5.45.46.92,1.99,1.3,3.02,1.93-.03.3-.07.59-.1.89-1.63.38-3.25.76-5.45,1.27,1.09.98,1.86,2.26,2.63,2.27,2.9.03,5.64,2.37,8.69.58.48-.28,1.39.18,2.11.31-.24.67-.28,1.59-.75,1.95-1.34,1.02-2.85,1.82-4.3,2.69-.61.37-1.25.7-1.87,1.05.43.69.76,1.5,1.34,2.04.61.56,1.41,1.03,2.21,1.22,3.29.8,6.62,1.43,9.91,2.23.73.18,1.83.65,1.96,1.19.52,2.06,1.89,2.04,3.55,2.04,5.69-.01,10.79-1.87,15.9-4.21,2.9-1.33,4.45-3.19,5.44-6.67-2.09.24-3.88.52-5.67.63-.92.05-1.88-.1-2.77-.35-1.15-.33-2.21-1.07-3.36-1.23-1.6-.21-3.33.27-4.85-.13-1.31-.35-2.51-1.4-3.57-2.35-.82-.74-1.38-1.79-2.02-2.73-.44-.64-.82-1.32-1.23-1.98.71-.35,1.45-1.06,2.13-1.01,7.51.61,14.42-2.34,21.62-3.56.5-.08,1.3-1.36,1.16-1.84-.76-2.64-.61-3,2.11-3.3,2.5-.28,4.72-1.04,6.1-3.52-5.08,1.87-9.03-1.53-13.44-2.59-.48-.12-1.02-.36-1.35-.71-.44-.47-.99-1.13-.93-1.65.04-.39.94-.86,1.52-.97,1.85-.36,3.74-.5,5.58-.88,1.09-.23,2.11-.77,3.16-1.17-.66-.71-1.34-1.42-1.99-2.15-.16-.18-.24-.44-.51-.97.84-.39,1.61-.91,2.45-1.1,6.52-1.53,12.97-3.16,17.69-8.46,1.18-1.32,2.36-1.25,3.78-.08,3.15,2.6,6.45,5.02,9.67,7.55.29.23.44.65.92,1.38-1.21.18-2.11.21-2.94.47-.88.28-1.69.78-2.53,1.19.76.69,1.45,1.88,2.29,1.99,3.16.44,6.37.52,9.56.76.54.04,1.07.2,1.6.31-.19.52-.23,1.22-.6,1.52-1.13.9-2.37,1.67-3.6,2.44-.89.56-1.82,1.05-2.74,1.58.78.95,1.43,2.1,2.39,2.8.92.67,2.15,1.04,3.3,1.26,2.5.47,5.06.67,7.55,1.18.81.16,1.78.78,2.12,1.47.19.39-.69,1.38-1.18,2.03-.47.62-1.06,1.14-1.6,1.7.89.36,1.76.78,2.67,1.06.47.14,1.02.04,1.53.04,3.91-.02,3.95.03,2.7,3.81-.09.29-.01.63-.01,1.43,1.98,0,3.85-.07,5.7.04.57.04,1.41.49,1.58.95.18.47-.13,1.42-.54,1.76-2.27,1.89-4.62,3.52-7.89,2.16-2-.83-3.11.1-2.91,2.31.11,1.18.54,2.32.73,3.5.16.99.46,2.07.23,3-1.34,5.53,1.6,9.46,7.2,9.48,4.63.01,9.25-.01,13.88.05.7.01,1.4.44,2.09.67-.32.73-.5,1.59-.99,2.18-1.45,1.75-3.34,2.62-5.67,2.36-.88-.1-1.78-.1-2.56-.15v4.62c4.98.21,9.25-1.93,13.71-3.22.47-.14,1.15-1.25,1.03-1.44-1.84-2.77.35-2.77,2.07-3.31,1.12-.35,2.18-1,3.17-1.66.48-.31.74-.95,1.1-1.44-.67-.11-1.33-.29-2-.31-1.22-.04-2.51.25-3.65-.04-1.25-.32-2.42-1.06-3.52-1.78-1.44-.94-2.79-2.03-4.18-3.05,1.56-.63,3.1-1.31,4.69-1.85.62-.21,1.39.04,2.04-.14,1-.28,1.95-.75,3.08-1.2-.44-.55-.61-.73-.74-.94-.56-.86-1.11-1.72-1.67-2.58,1-.53,1.94-1.33,3-1.53,5.42-1,10.04-3.44,13.38-7.8,1.55-2.03,2.34-1.49,3.73-.08,2.27,2.31,4.7,4.47,7.05,6.7.65.61,1.25,1.28,1.87,1.92-.75.42-1.51.82-2.25,1.26-.48.29-.91.64-1.37.96.33.44.58,1.11,1.02,1.29,2.38.97,4.61,2.79,7.48,1.46.42-.19,1.34-.04,1.56.28.26.38.23,1.33-.07,1.63-.76.75-1.69,1.4-2.66,1.87-2.74,1.32-3.08,2.83-.45,4.33,2.21,1.26,4.93,1.59,7.38,2.45,1.21.43,2.33,1.12,3.5,1.69-.61.92-1.24,1.84-1.83,2.77-.13.2-.16.47-.42,1.31,1.66.36,3.24,1.01,4.8.97,3.98-.11,5.77-3.14,6.94-6.29,1.27-3.42.08-5.01-3.07-5.21-.92-.06-1.82-.55-2.72-.85.64-.72,1.19-1.57,1.94-2.13,2.89-2.13,3.19-3.68,1.5-6.8-.39-.72-.18-1.91.05-2.81.8-3.18,1.74-6.33,2.61-9.5.23-.81.41-1.64.61-2.46.36-.03.73-.07,1.09-.1.55,2.03,1.75,4.15,1.5,6.07-.33,2.56,0,4.69,1.11,6.9.39.78.86,2.06.51,2.6-2.02,3.12-.54,5.22,1.64,7.37,1.09,1.08.94,2.18-.81,2.56-2.95.64-3.42,2.01-1.41,4.38.6.71,1.44,1.22,2.05,1.92,1.09,1.25,1.45,2.42-.26,3.62-.64.45-1.28,1.61-1.15,2.3.69,3.58,1.33,7.23,4.27,9.89.69.63,1.05,1.63,1.57,2.45-.97.35-1.91.92-2.91,1.02-2.64.27-5.12,4.15-4.22,6.65,1.01,2.8,3.17,4.34,5.64,5.64,1.44.76,2.63,1.55,1.63,3.61-.31.64.2,2.45.65,2.57,2.39.64,4.88.94,7.34,1.31.67.1,1.37.07,2.05.09-.22.78-.24,1.74-.72,2.29-.58.67-1.54,1.02-2.36,1.48-1.05.58-2.12,1.13-3.19,1.7.11.34.21.68.32,1.02,1.24-.28,2.51-.49,3.72-.85,4.99-1.48,9.56-4.07,12.08-8.55,1.78-3.16,3.89-3.24,6.67-3.1,4.75.24,9.36-.33,13.79-2.2,4.11-1.74,7.37-4.21,8.33-9.04-.45.12-.79.16-1.09.29-2.64,1.2-5.16,1.84-7.47-.79-.36-.41-1.56-.23-2.33-.09-3.53.62-5.56,0-6.8-2.18-.63-1.11-1.37-2.16-1.96-3.29-.3-.57-.7-1.51-.46-1.82.38-.5,1.26-.81,1.94-.85,1.27-.07,2.62.4,3.81.13,4.89-1.1,9.74-2.35,14.57-3.68.47-.13,1.14-1.48.94-1.81-1.41-2.43.26-2.66,1.94-3.22,1.5-.49,2.93-1.25,4.27-2.08.38-.23.33-1.15.48-1.75-.56-.04-1.12-.15-1.67-.09-1.25.13-2.61.76-3.7.44-2.22-.66-4.35-1.72-6.39-2.84-.77-.42-1.2-1.47-1.79-2.23.82-.42,1.61-1.04,2.48-1.22,2.24-.47,4.53-.75,7.23-1.18-.8-.93-1.24-1.33-1.55-1.81-.48-.75-.88-1.55-1.32-2.33.84-.27,1.67-.59,2.53-.81,4.13-1.08,8.3-2.08,11.47-5.25,1.03-1.03,2.03-2.09,3.04-3.13,1.27-1.32,2.37-1.33,3.62.17,1.53,1.84,3.21,3.56,4.93,5.23,1.12,1.08,2.44,1.95,4.18,3.32-1.34.38-1.99.47-2.55.75-.71.35-1.35.84-2.02,1.27.51.61.94,1.64,1.55,1.76,2.46.46,4.96.64,7.46.9.68.07,1.37.05,2.06.08-.16.78-.05,1.87-.52,2.29-1.06.91-2.44,1.44-3.63,2.21-.6.39-1.4.91-1.52,1.5-.1.49.51,1.4,1.04,1.7,1.52.85,3.12,1.63,4.78,2.15,1.69.53,3.51.6,5.21,1.09.82.24,1.56.91,2.15,1.56.11.12-.74,1.03-1.06,1.63-.3.56-.84,1.32-.66,1.73.24.55,1.01,1.06,1.65,1.21.98.23,2.09-.03,3.05.24.52.15,1.24,1.02,1.19,1.5-.31,3.3-.36,3.24,3.21,3.66.8.09,2.16.74,2.17,1.15.02.87-.46,2.15-1.14,2.54-1.35.77-2.98,1.05-4.49,1.54-.81.26-1.62.54-2.43.82.53.57,1.03,1.18,1.6,1.71,1.14,1.08,2.32,2.12,3.91,3.56-1.41.6-2.25.89-3.02,1.3-.47.25-.83.7-1.24,1.07.41.36.78.95,1.24,1.03,3.19.6,6.4,1.09,9.66,1.63-.17,1.95-.3,2-3.71,3.72-.79.4-1.3,1.34-1.94,2.04.85.44,1.67,1.15,2.56,1.25,1.77.19,3.59.09,5.38.01,1.35-.05,3.01-.77,3.95-.21.71.42.48,2.39.7,3.67.06.33.32.67.27.98-.08.6-.22,1.23-.5,1.76-.42.81-.97,1.56-1.46,2.33,1.17.54,2.31,1.19,3.53,1.57.87.27,1.85.16,2.9.23-1.24,4.05-1.01,4.1,2.83,4.42,3.11.26,4.97-1.3,6.76-3.35,1.1-1.25,1.61-2.34-.51-3.03-1.5-.49-1.27-1.27-.49-2.31,2.08-2.76,1.68-3.53-1.78-4.12-.73-.12-1.34-.92-2-1.41.61-.57,1.17-1.2,1.82-1.7,1.94-1.48,4.05-2.78,5.82-4.44.58-.54.29-1.99.41-3.03-.86.16-1.72.3-2.57.49-1.5.35-2.97.91-4.49,1.05-1.7.16-3.43-.06-5.15-.09-1.05-.02-2.13.17-3.15,0-2.42-.42-3.71-2.04-4.64-4.28-1.3-3.13-1.24-3.18,2.19-3.48,1.95-.17,3.92-.92,5.73-1.76.81-.38,1.23-1.6,1.82-2.45-.87-.37-1.74-.75-2.61-1.11-1.21-.5-2.52-.86-3.61-1.55-.52-.32-.65-1.27-.95-1.93.73-.29,1.44-.73,2.19-.84,2.75-.4,5.76-.14,8.23-1.16,4.05-1.68,8.48-3.48,9.09-9.44-3.39,1.37-5.66-2.28-9.05-1.32-.79.22-2.3-1.24-3.13-2.22-.84-1-1.21-2.38-1.83-3.57-.62-1.2-.36-1.88,1.02-2.24,4.01-1.04,8.01-2.12,12-3.25,1.48-.42,2.68-1.05,2.09-3.09-.16-.55.52-1.61,1.11-2.06,1.13-.87,2.51-1.43,3.7-2.23.34-.23.62-.92.52-1.29-.08-.3-.88-.73-1.17-.62-3.67,1.47-5.37-2.15-8.08-3.13-.46-.17-.89-1.37-.74-1.94.14-.55,1-1.07,1.64-1.28.79-.25,1.7-.15,2.55-.23,2.63-.26,2.96-.9,1.48-3.08-1.06-1.57-.64-2.7,1.1-3.06,4.62-.94,8.11-3.35,10.57-7.38,1.01-1.66,2.11-1.68,3.38-.03,1.7,2.21,3.57,4.3,5.44,6.38,1.1,1.22,1.39,2.15-.44,2.9-.56.23-1.49.86-1.43,1.08.18.67.66,1.59,1.22,1.76,1.45.43,3.01.51,4.52.74.63.1,1.52.02,1.82.39.28.35.14,1.35-.18,1.8-.57.8-1.39,1.45-2.17,2.07-2.22,1.78-2.33,3.02.1,4.47,1.88,1.12,4.04,1.77,6.12,2.52,2.23.8,2.54,1.49.92,3.11-1.47,1.48-.51,2.26.66,2.97.47.29,1.15.26,1.75.32,1.41.14,2.08.69,1.43,2.19-.66,1.51.34,1.78,1.5,2.28,1.08.46,2.49,1.36,2.72,2.32.32,1.29-2.81,3.33-4.22,2.97-2.19-.57-2.73.43-2.72,2.4,0,1.12-.42,2.24-.66,3.36-1.15-.46-2.32-.88-3.43-1.42-.52-.25-.87-.87-1.39-1.11-.4-.18-1.32-.15-1.37,0-.52,1.46-1.53,3.14-1.19,4.44.99,3.81,3.69,4.53,7,2.07,2.1-1.56,3.91-3.52,6.01-5.09.96-.72,2.11-2.6,3.55-.55,2.14,3.04,4.62,5.48,8.67,5.83-.31.94-.68,1.72-1.29,2.49-1.17-.13-2.09-.27-3.02-.36-2.05-.2-3.42,1.41-2.9,3.37.15.57.42,1.12.52,1.7.72,4.16,2.33,5.08,5.63,3.73,2.44,2.73,4.73,5.27,7,7.81h5.43c.82-2.79-2.02-2.97-3.26-4.01-1.35-1.15-3.34-1.55-5.18-2.33.48-.68.59-.93.77-1.07,1.48-1.17,1.14-7.73-.5-8.67-.34-.19-.83-.12-1.22-.38.83-.63,1.59-1.3,2.43-1.41,1.58-.19,3.19-.06,4.86.08.19.42.31.7.25,1.03-2.06.26-3.21,1.28-3.09,3.19.08,1.29,2.83,2.34,4.32,1.48,1.24-.72,2.15-2.03,3.33-3.19.34-.36.56-.61.96-.81,1.26.69,2.33,1.32,3.56,2.04.27.15.37.2.55.37.62.05,1.18-.02,1.88-.17.45-.52.76-.96,1.12-1.55-.34-.94-.72-1.73-1.22-2.65-.66-.99-1.07-1.98-1.78-2.66-1.52-1.45-1.04-2.47.18-3.86,1.48-1.69,2.61-3.69,3.96-5.73.34-1.9,1.43-2.53,3.08-2.69,1.13-.11,2.23-.55,3.35-.84.02,0,0-.03.2-.05.58-.07.97-.12,1.48-.03,2.06,2.39,4.4,3.73,7.37,2.61,2.67-1.01,4.37-2.72,4.8-5.97.63-4.85,1.1-4.95,6.26-5.43,2.6-.24,3.89-2.26,2.6-4.52-.66-1.16-1.92-2.2-3.15-2.78-4.37-2.06-8.78-1.49-13.17.18-.56.22-1.37-.22-2.07-.35.36-.68.55-1.65,1.12-1.96.92-.51,2.07-.71,3.14-.85,2.81-.37,5.7.09,8.24-2.01,1.05-.87,2.91-2.03,4.67-.42,1.74,1.58,2.44.65,2.85-1.24.26-1.22.53-2.69,1.34-3.51,3.85-3.9,10.42-4.11,15.69-.35-.53.28-.94.57-1.4.75-2.76,1.02-5.51,1.72-8.48.6-.57-.21-1.49.52-2.25.81.44.62.81,1.71,1.33,1.78,1.98.28,4.05.52,6.01.24,3.44-.49,5.2.73,5.75,4.17.13.79,1.1,1.81,1.89,2.06,2.08.66,4.26,1,6.42,1.39,1.58.28,3.28.88,4.73.53,1.38-.34,2.5-1.73,3.74-2.66-1.05-1.12-1.9-2.77-3.18-3.23-2.27-.83-4.8-1.03-7.24-1.33-3.05-.38-3.5-1.14-1.74-3.61.51-.71,1.45-1.1,2.19-1.65.54-.4,1.07-.81,1.61-1.21-.06-.22-.12-.44-.18-.66-.88-.15-1.77-.25-2.63-.46-1.43-.36-3.14-1.42-2.21-2.69,1.1-1.51,3.32-3.17,4.98-3.09,2.28.11,4.91,1.32,6.63,2.89,2.21,2.02,4.51,2.28,7.08,1.99,2.36-.27,4.69-.79,7.02-1.28.57-.12,1.26-.38,1.57-.81.49-.69.89-1.57.94-2.39.02-.25-1.26-.53-1.9-.89-1.08-.62-2.14-1.28-3.17-1.98-.37-.25-.62-.68-.96-1.07-.69,1.04-1.08,2.34-1.89,2.7-1.51.68-3.28,1.12-4.92,1.06-.94-.04-1.83-1.26-2.75-1.95.7-.64,1.41-1.29,2.11-1.93.67-.61,1.38-1.18,1.98-1.86.84-.95,1.43-2.19,2.41-2.94,3.91-2.99,7.93-5.83,11.91-8.73,1.03-.75,2.57-1.34,2.91-2.34.3-.88-.77-2.21-1.23-3.34-.77-1.87-.1-3.08,1.83-2.75,2.13.36,3.84.12,5.38-1.47.32-.33,1.09-.29,1.66-.33,2.41-.14,4.82-.21,7.23-.37,2.04-.14,5.76,1.77,6.57,3.45-.25.01-.5.03-.75.04,0,1.21-.02,2.42-.03,3.63,0,.6.21,1.31-.05,1.77-1.72,3.13.15,5.64,1.48,8.12.44.82,1.86,1.52,2.86,1.56,1.74.07,2.18.72,2.23,2.33.04,1.2.2,3,.96,3.45,2.41,1.45,2.22,3.54,2.32,5.78.04.84.75,2.33,1.21,2.35,3.33.17,3.03,2.83,3.82,4.82-.35.24-.56.38-.76.52-1.03.73-2.06,1.45-3.09,2.18,1.24.73,2.47,1.49,3.73,2.18.27.15.67.07,1.02.07,2.11,0,4.21,0,6.47,0-.56,1.94-1.16,3.74-3.62,4.27-.86.18-1.92,1-2.2,1.77-.2.55.64,1.64,1.25,2.26.56.57,1.38.98,2.17,1.22,2.44.73,4.92,1.33,7.36,2.03.85.24,1.66.64,2.49.97-.6.75-1.2,1.5-1.8,2.25-.3.37-.58.76-.87,1.14.45.32.85.79,1.35.93.64.18,1.36.12,2.04.1,1.58-.03,2.9.11,2.97,2.25.02.59.95,1.7,1.29,1.64,2.33-.44,4.97-.61,6.79-1.9,1.33-.95,2.3-2,4.07-2.04.98-.02,2.05-.28,2.9-.76.87-.49,1.52-1.38,2.27-2.09-.97-.89-1.86-1.89-2.93-2.64-.94-.65-2.05-1.08-3.13-1.47-.83-.3-1.75-.61-2.59-.52-4.35.48-5.85-.31-7.89-4.19-.28-.53-1.09-.76-1.5-1.26-.5-.61-.84-1.36-1.25-2.05.66-.28,1.33-.82,1.98-.79,5.82.28,11.34-.93,16.73-3.07,1.39-.55,3.24-.24,3.04-2.57-.12-1.43.24-3.15-.43-4.24-1.26-2.06-3.11-3.75-4.71-5.6-.53-.62-1.05-1.25-1.98-2.35,1.41-.38,2.31-.71,3.24-.85,1.59-.23,3.24-.22,4.79-.58.47-.11,1.17-1.36,1-1.68-1.02-1.94-2.26-3.76-3.54-5.81.66-.54,1.41-1.19,2.18-1.8,2.07-1.63,1.99-3.73,1.54-6.05-.24-1.22-.32-2.63.07-3.77,1.11-3.22,2.7-6.31,2.12-9.95,2.4.04,3.77,1.71,3.75,3.89-.02,2.07.02,4.2.48,6.2.47,2.05,1.3,3.83.22,6.07-.66,1.37-.35,3.32,1.43,4.22,1.62.82,2.72-.2,3.78-1.3,1.31-1.36,2.54-2.84,4.07-3.89.71-.49,2.39-.52,3.02,0,2.57,2.08,4.88,4.46,7.32,6.7,2.09,1.91,2.03,2.15-.55,3.22-.57.24-1.17.98-1.26,1.57-.06.38.71,1.15,1.24,1.32,2.65.85,5.31,2.02,8.12.36.39-.23,1.08.05,1.61.09.06,4.35-4.23,4.28-6.47,6.59.79.69,1.38,1.25,2.03,1.75,2.73,2.12,6.05,2.43,9.29,3.04.75.14,1.8.52,2.03,1.07.22.54-.38,1.46-.71,2.17-.33.71-.77,1.37-1.16,2.06.82.32,1.62.88,2.46.94,4.08.3,4.09.25,3.46,4.01,3.04,1.67,6.24,1.29,8.63-1.01,2.36-2.27,2.15-3.17-.99-4.26-.12-.04-.18-.27-.34-.53.46-.74,1.01-1.5,1.44-2.33.4-.78.68-1.63,1.01-2.46-.85-.26-1.71-.53-2.56-.78-.16-.05-.39.04-.5-.05-.67-.5-1.32-1.03-1.98-1.55.46-.57.85-1.23,1.4-1.69,2.34-1.95,4.76-3.81,7.08-5.78.34-.28.3-1,.44-1.52-.58-.1-1.42-.51-1.71-.27-2.5,2.1-5.27,2.04-8.21,1.35-.64-.15-1.37-.04-2.04.08-4.74.83-7.06-.42-8.77-4.77-1.14-2.89-.85-3.23,2.38-2.81,3.22.42,6.49-1.66,7.27-4.87-1.01-.13-2.03-.14-2.97-.41-1.03-.29-2.26-.58-2.91-1.31-.68-.76-.78-2.05-1.13-3.11,1.02-.23,2.04-.63,3.06-.63,1.17,0,2.4.69,3.49.49,7.29-1.35,12.28-5.87,16.05-12.07-.83-1.46-1.76-1.68-3.31-.72-1.01.62-3.04,1.23-3.55.74-1.59-1.52-3.34-1.38-5.2-1.59-.87-.1-1.65-1.02-2.45-1.7-.05-.39-.12-.64-.28-1.06-.31-.75-.54-1.32-.58-2,1.11-.23,2.08-.23,2.96-.51,3.02-.98,6.09-1.9,8.99-3.18,1.42-.63,3.72-2.46,3.53-2.96-.87-2.29.35-2.65,1.91-3.46,1.23-.64,2.25-1.85,3.1-3.01.34-.46.22-1.68-.17-2.11-.39-.43-1.45-.52-2.11-.34-.76.21-1.4.88-1.94,1.24-2.31-1.38-4.44-2.65-6.58-4.1,0-.44.02-.69.28-.95,1.17,0,2.12.07,3.05,0,3.28-.26,4.78-1.45,4.61-3.83-1.07-.34-2.01-.53-2.9-.88.15-.37.25-.58.52-.86,4.61-1.87,8.78-3.97,11.38-8.35.74-1.25,1.89-.94,2.83.33,1.53,2.07,3.25,4.01,4.96,6.2-.16.48-.32.87-.62,1.03-.67.38-2.04.73-2.01.94.14,1,.47,2.08,1.05,2.9,1.65,2.32,4.14,1.35,6.43,1.62,0,.62-.05,1.04-.24,1.57-.67.53-1.16,1.02-1.75,1.35-2.04,1.15-2.42,2.37-.96,4.19,1.57,1.97,3.58,3.29,6.25,3.38.87.03,1.73.43,2.59.66-.38.77-.84,1.51-1.13,2.31-.29.82-.64,1.74-.52,2.55.06.36,1.21.62,1.9.77.57.13,1.19.03,1.78.06,1.28.06,1.63.66,1.11,1.85-1.2,2.74-.85,3.29,2.27,3.39,1.26.04,2.49-.01,2.18,1.88-1.58.47-2.99,1.16-4.39,1.16-2.25,0-3.45.54-2.84,3.2.5,1.02,1.01,1.87,1.53,2.73-2.96,1.08-3.85.71-4.93-2.03-.71-1.79-1.61-3.34-4.44-3.61.48,1.37.79,2.5,1.26,3.56.48,1.07,1.37,1.95-.04,3.13-.44.37-.53,2.01-.13,2.4,1.7,1.67,3.57,3.22,5.55,4.55.97.65,2.03.78,1.5,2.38-.15.46.46,1.45.99,1.82,1.98,1.37,3.76,1.13,5.36-.83,1.45-1.78,3.06-1.57,4.6.02,2.1,2.17,6.02,2.1,6.99,5.73.1.39,1.02.54,1.53.85.61.38,1.19.82,1.79,1.23,0,.26,0,.52,0,.79-1.22.25-2.46.44-3.65.78-.66.19-1.25.64-1.87.97.5.64.92,1.75,1.5,1.84,3.3.49,6.5,2.41,9.99.79.45-.21,1.54.01,1.7.35.24.48.13,1.54-.24,1.83-1.25.99-2.67,1.77-4.06,2.57-.8.47-1.67.82-2.87,1.4.94.85,1.39,1.33,1.92,1.72,3.3,2.41,7.17,3.01,11.09,3.29,1.56.11,2.82.19,3.15,2.18.1.58,1.35,1.46,1.99,1.39,3.54-.37,7.23-.5,10.54-1.65,4.87-1.69,10.85-2.27,12.24-9.35-1.03.2-2.02.56-3.02.56-1.89,0-3.79-.12-5.66-.36-1.41-.18-2.77-.71-4.17-.94-.8-.13-1.65,0-2.48.02-4.87.15-5.32-4.66-8.61-7.17,1.27-.28,1.89-.52,2.52-.54,2.31-.08,4.68.22,6.92-.19,4.58-.84,9.12-1.98,13.63-3.17,1.42-.37,3.15-.93,1.94-3.22-.23-.44.22-1.74.68-1.95,1.21-.56,2.57-.82,3.9-1.04,1.85-.3,3.31-1,4.31-3.43-1.75.33-3.04.63-4.34.79-.88.11-1.87.24-2.66-.04-2.06-.73-4.05-1.64-6.03-2.55-.91-.42-1.84-.89-2.56-1.55-.49-.45-.63-1.28-.92-1.94.68-.25,1.35-.68,2.04-.72,2.22-.13,4.46-.02,6.67-.19.73-.06,1.4-.71,2.1-1.09-.41-.6-.8-1.22-1.23-1.81-.41-.56-.87-1.1-1.31-1.64.74-.49,1.45-1.33,2.23-1.42,7.13-.78,13.35-3.44,18.36-8.66,1.03-1.07,1.83-.74,2.85.09,3.09,2.55,6.27,4.99,9.39,7.51.42.34,1.01,1.15.89,1.35-.31.5-.95.85-1.52,1.11-.45.2-1.07.06-1.49.29-.47.25-1,.69-1.14,1.15-.09.29.42,1.07.76,1.14,2.92.59,5.85,1.07,8.79,1.56.91.15,1.84.22,2.76.32-.41.77-.64,1.77-1.26,2.27-.91.72-2.08,1.12-3.17,1.6-.74.33-1.52.56-2.52.91.5.79.69,1.5,1.13,1.71,2.43,1.16,4.86,2.36,7.4,3.21,1.67.56,3.55.47,5.29.85.66.14,1.75.88,1.69,1.19-.12.72-.78,1.37-1.29,2-.43.54-.93,1.01-1.4,1.51.72.33,1.41.8,2.17.96,1.65.36,3.63.11,4.94.94,2,1.28,3.27,1.02,4.6-.65.8-1,1.64-1.96,2.34-3.02,1.33-2,2.42-2.05,3.93-.14,1.69,2.13,3.39,4.27,5.15,6.34,1.16,1.37,1.04,2.2-.76,2.77-1.95.61-1.43,1.94-.22,2.52,1.43.68,3.15.77,4.75,1.06.7.13,1.43.12,2.15.17-.17.7-.19,1.48-.55,2.06-.43.69-1.07,1.29-1.75,1.76-2.37,1.65-2.46,3.32.12,4.71,1.67.9,3.64,1.27,5.51,1.72,2.25.54,3,1.98,1.81,3.66-.45.63-.75,1.37-1.12,2.05.89.35,1.77.99,2.66.99,1.8,0,2.26.86,2.14,2.4-.05.65-.14,1.29-.22,2.05.95.16,1.87.05,2.4.46.77.58,1.79,1.55,1.77,2.33-.05,2.17-2.67,3.87-4.83,3.22-1.65-.5-2.15.02-2.32,1.6-.11,1.07-.31,2.63-1.02,3.04-1.29.75-2.53,0-3.37-1.4-.28-.47-1.41-.88-1.9-.69-1.65.67-2.44,4.47-1.19,5.77,1.41,1.47,3.07,2.68,4.52,4.11.8.79,1.62,1.7,2,2.72.86,2.29,3.38,3.22,5.37,1.75.68-.5,1.29-1.13,1.86-1.77,1.24-1.42,2.28-1.36,3.61.03.95,1,2.23,2.19,3.46,2.32,6.18.63,11.45-1.97,16.27-5.49,1.75-1.28,1.21-3.17-.96-3.72-1.14-.29-2.39-.1-3.57-.27-.89-.13-2.04-.22-2.55-.8-.94-1.07-1.67-.97-2.89-.57-3.78,1.26-6.68.03-8.62-3.3-.4-.69-1.14-1.19-1.64-1.84-.43-.56-.75-1.22-1.11-1.83.63-.36,1.23-.96,1.89-1.04,3.79-.45,7.62-.58,11.38-1.2,3.25-.54,6.44-1.51,9.6-2.49.72-.22,1.81-1.57,1.66-1.87-1.38-2.8.34-2.94,2.36-3.19,1.24-.15,2.49-.6,3.63-1.15,1.05-.5,1.94-1.31,2.91-1.98-.14-.31-.28-.62-.42-.92-1.01.17-2.01.38-3.03.51-1.16.15-2.43.57-3.47.26-2.72-.81-5.38-1.85-7.96-3.03-.85-.39-1.38-1.5-2.05-2.28.85-.59,1.66-1.56,2.57-1.68,2.11-.27,4.28-.05,6.41-.18.83-.05,1.65-.49,2.37-.73-1.15-1.53-1.97-2.62-2.79-3.71,1.01-.53,1.99-1.44,3.04-1.52,6.87-.56,12.53-3.41,17.28-8.35.96-1,2.27-1.21,3.63.02,2.9,2.62,5.99,5.04,8.98,7.56.58.49,1.09,1.06,1.82,1.78-1.99.67-3.52,1.18-5.06,1.7.05.32.1.65.16.97,3.6,1.02,6.98,3.66,11.2,1.29.8,1.01,1.31,2.15,2.18,2.63.62.34,1.73-.23,2.63-.39-.4-.58-.69-1.32-1.23-1.69-1.03-.71-2.21-1.2-3.29-1.95.26-.56.47-.96.87-1.42,1.1-.39,2.01-.71,3.09-1.08.7-.15,1.24-.26,1.96-.33,1.15-.15,2.12-.34,3.11-.52.02,0,.02-.04.1-.12-.04-.53-.17-.97-.4-1.51-.32-.28-.53-.47-.85-.79-.97-.59-1.79-1.25-2.71-1.44-1.47-.31-3-.3-4.51-.42,0,.01.02,0-.06-.13-.37-.38-.67-.63-1.05-1.02-.29-.37-.5-.61-.72-1-.23-.63-.46-1.1-.78-1.7-.8-.67-1.5-1.21-2.18-1.94.09-.58.17-.97.41-1.45.75-.3,1.33-.5,2.03-.57,2.02.06,3.93-.03,6.06-.1,1.13-.07,2.03-.14,3.08-.22.68-.33,1.2-.65,1.93-.95,1.2-.13,2.21-.24,3.19-.44,2.56-.54,5.1-1.13,7.75-1.73.02-.36-.07-.67-.25-1.03-.09-.04-.29-.08-.39-.18-.41-.26-.73-.43-1.28-.63-1.41-.13-2.62-.07-3.77-.33-1.92-.43-2.28-1.57-.99-3.22,1.08-.47,1.98-.9,3.02-1.46,1.65-1.67,2.08-2.97-.53-3.84-.95-.32-1.95-.81-2.64-1.5-.45-.45-.68-1.96-.49-2.06,2.87-1.6,4.36-5.1,7.92-5.74.65-.12,1.24-.55,1.85-.85,1.83-.91,1.93-2.57.98-3.88-1.05-1.47-2.65-2.56-4.06-3.76-1.12-.96-2.32-1.84-3.48-2.75.05-.26.1-.51.16-.77.9-.24,1.8-.5,2.71-.71,2.4-.56,5.1-1.11,5.87-3.7.54-1.83,1.46-2.32,2.98-2.94,1.77-.73,2.84-.84,4.08.97.49.71,2.76,1.1,3.44.6,1.53-1.14,1.13-2.99-.57-3.67-2.75-1.1-2.24-4.13-4.49-5.89,1.02-.24,1.57-.51,2.09-.47,2.62.23,5.09,2.79,5.23,5.54.09,1.81.77,3.19,2.67,2.92,2.14-.3,4.21-1.12,6.54-1.78.79.84,1.68,1.78,2.23,2.35-2.41,1.38-4.44,2.39-6.26,3.71-.42.3-.36,1.84.02,2.5.39.69,1.44,1,1.74,1.19-.82,1.18-2.35,2.4-2.22,3.42.23,1.9,2.28,1.72,3.8,1.62,3.47-.23,6.93-.59,10.53-.92-.26.36-.67,1-1.15,1.59-1.04,1.28-2.25,2.45-3.1,3.84-.44.71-.24,1.81-.33,2.74.9-.35,1.78-.74,2.69-1.03.62-.19,1.28-.24,1.92-.36-.15.59-.32,1.18-.46,1.78-.05.22-.03.45-.05.68.18-.17.35-.34.53-.51,1.26.96,3.39,1.75,3.62,2.9.58,3.05,2.51,4.79,4.62,6.57.85.72,1.74,1.41,2.65,2.06.75.54,2.3,1.27,2.23,1.47-.95,2.69.27,4.38,2.33,5.8.48.33.88,1,1.38,1.06,3.65.41,3.65.38,2.96,4.15,1-.24,1.99-.22,2.65-.67,2.86-1.97,5.74-3.97,8.4-6.2,1.47-1.23,2.33-1.14,3.64.13,2.27,2.19,4.67,4.25,7.14,6.22,1.19.95,2.66,1.56,4,2.32-.06.31-.11.61-.17.92-1.1.18-2.24.24-3.28.6-.61.21-1.07.9-1.59,1.37.47.52.86,1.36,1.43,1.51,3.18.83,6.36,2.15,9.71.46.46-.23,1.25.17,1.89.28-.19.68-.17,1.66-.62,1.98-1.51,1.05-3.11,2.03-4.81,2.71-1.56.62-1.99,1.7-.96,2.67,1.19,1.13,2.79,2.12,4.38,2.49,2.88.68,5.89.82,8.83,1.27.69.11,1.33.56,1.99.86-.31.66-.53,1.38-.94,1.96-.33.47-.95.74-1.32,1.2-.91,1.09-.69,1.9.76,2.16.67.12,1.37.09,2.05.1q3.96.07,3.43,4.24c1.28.26,2.59.49,3.88.81.96.24,1.9.59,2.85.9-.42,1.04-.55,2.46-1.32,3.04-2.03,1.53-4.38,2.17-6.99,1.19-.71-.26-1.89-.09-2.45.37-.42.34-.21,1.47-.28,2.25-.07.78.15,1.98-.25,2.25-.75.5-2,.83-2.79.54-1.74-.63-3.49-1.5-4.94-2.63-1.91-1.5-3.06-1.98-3.33,1.11-.04.5-.61,1.02-1.03,1.42-1.17,1.09-1.06,2.21.16,2.99,2.63,1.69,5.36,3.22,8.04,4.83.78.47,2.16.95,2.2,1.51.25,3.13,2.49,2.66,4.48,2.86,1.27.12,2.52.55,3.79.63,2.12.13,4.28.34,6.37.06,3.1-.42,6.15-1.22,9.22-1.91.61-.14,1.16-.49,1.75-.75-.36-.48-.73-.95-1.09-1.44-.52-.71-1.03-1.43-1.55-2.14.71-.37,1.38-.92,2.14-1.09,6-1.32,11.25-3.93,15.37-8.59,1.31-1.49,2.19-1.08,3.43.43,1.88,2.28,4.23,4.18,6.36,6.26.65.63,1.26,1.29,1.89,1.94-.74.42-1.5.81-2.22,1.28-.47.31-1.24.73-1.24,1.08.01.57.47,1.51.9,1.61,2.37.54,4.79.92,7.2,1.25.82.11,1.68-.06,2.53-.11-.38,1-.67,2.06-1.2,2.97-.26.45-1.01.61-1.48.96-1.02.76-2,1.57-2.99,2.36,1.17,1.1,2.3,2.23,3.52,3.27.28.24.82.2,1.24.27,2.27.37,4.53.75,6.8,1.09,1.31.2,2.24.57,1.29,2.13q-2.37,3.92,2.29,4.17c.43.02.98-.09,1.25.13.43.36.95.96.94,1.44-.07,2.35.55,2.98,2.86,2.5,3.08-.63,6.28-.96,9.2-2.05,3.88-1.46,7.57-3.46,11.25-5.39.64-.34.86-1.49,1.27-2.27-.77-.21-1.53-.48-2.32-.62-.68-.12-1.38-.1-2.07-.14-.1-.23-.19-.47-.29-.7,1.02-.96,2.09-1.87,3.03-2.9.41-.46.56-1.16.83-1.75-.65-.29-1.28-.76-1.95-.83-1.34-.15-2.76.11-4.05-.18-1-.23-1.85-1.06-2.77-1.62.9-.49,1.79-1.02,2.71-1.48,3.7-1.84,7.43-3.62,11.09-5.55.46-.24.89-1.45.67-1.85-.29-.53-1.2-.87-1.9-.98-.51-.08-1.11.31-1.67.51-2.15.79-4.24,1.84-6.46,2.27-1.22.24-2.63-.6-3.97-.91-.81-.19-1.88-.69-2.42-.36-4.3,2.6-8.44.37-12.66-.13-2.68-.32-2.7-3.08-4.39-4.27-.45-.32-.59-1.09-.87-1.65.59-.28,1.16-.76,1.76-.79,2.14-.11,4.36.3,6.4-.16,2.95-.66,5.79-1.86,8.62-2.96.46-.18.66-1.03.98-1.58-.51-.23-1.01-.62-1.55-.67-1.02-.1-2.1.19-3.07-.02-2.02-.45-4.03-1.02-5.95-1.77-.61-.24-.93-1.23-1.38-1.88.87-.41,1.86-1.34,2.58-1.16,5.94,1.46,11.57-.18,17.17-1.62,2.78-.72,5.57-1.84,8-3.36,1.27-.79,1.76-2.84,2.6-4.31-1.22-.27-2.44-.55-3.67-.81-1.53-.32-3.06-.58-4.58-.93-1.14-.26-2.32-1.04-3.36-.86-3.81.66-5.88-.1-8.02-3.27-.57-.84-1.43-1.47-2.11-2.24-.41-.46-.72-1-1.2-1.67.65-.22.95-.39,1.27-.43,5.74-.75,11.5-1.4,17.22-2.25,2.09-.31,4.13-1.03,6.14-1.71,1.07-.36,1.82-1.12.81-2.34-1.21-1.47-.25-1.86,1.03-2.19,1.56-.41,3.19-.72,4.62-1.43.89-.44,1.47-1.51,2.18-2.31-1.02-.08-2.04-.22-3.06-.21-1.08,0-2.26.48-3.21.18-2.16-.68-4.31-1.55-6.28-2.67-1.19-.68-2.04-1.95-3.05-2.96,1.31-.38,2.61-.79,3.94-1.11.49-.12,1.04.05,1.54-.03,1.84-.31,3.66-.66,5.5-1-.58-1.15-1.2-1.47-1.61-1.96-.49-.59-1.23-1.49-1.06-1.96.22-.6,1.23-1.22,1.94-1.27,6.99-.46,12.88-3.17,17.53-8.43,1.38-1.57,2.42-1.15,3.84.1,2.93,2.59,6.06,4.93,9.09,7.41.59.49,1.06,1.13,2.03,2.18-1.81.29-2.96.41-4.08.69-.5.13-.93.58-1.39.88.36.4.66,1.04,1.11,1.17,3.1.92,6.06,2.91,9.54,1.2.65-.32,1.59-.05,2.42-.05-.34,2.5-1.79,3.94-4.67,5.03-.78.3-1.45.88-2.17,1.33.61.66,1.17,1.4,1.86,1.97,3.38,2.8,7.75,2.17,11.62,3.28.67.19,1.25.68,1.87,1.04-.37.53-.73,1.06-1.1,1.6-.51.74-1.02,1.48-1.54,2.22.94.47,1.85,1.15,2.84,1.33.86.16,1.82-.26,2.75-.41,1.33-.22,2.16.36,1.74,1.68-.85,2.69.53,3.18,2.71,3.11.68-.02,1.44-.16,2.04.08.81.32,1.92.83,2.11,1.48.17.58-.56,1.76-1.22,2.18-2.14,1.38-4.26,2.54-7.15,1.66-2.67-.81-3.47.29-3.07,2.95.12.78-.24,1.89-.79,2.43-.44.43-1.59.49-2.26.25-1.42-.51-2.73-1.33-4.09-2.02-1.07-.55-2.15-1.09-2.58-1.3-1.17,1.31-1.84,2.29-2.73,3.02-1.47,1.22-1.33,2.5.04,3.36,2.35,1.48,4.89,2.66,7.36,3.96.97.51,2.71.93,2.78,1.54.42,3.61,3.38,3.22,5.54,3.58,4.1.68,8.27.91,12.41,1.33M83.66,299.77c.28-.32.78-.62.81-.97.07-.85.17-1.86-.22-2.53-.36-.6-1.42-1.22-2.05-1.11-.57.1-1,1.15-1.42,1.82-.31.48-.44,1.43-.77,1.49-2.46.45-4.99,1.14-7.42.93-1.54-.14-2.16-.49-2.64,1.33-.62,2.34-3.4,2.73-4.98.92-.79-.9-1.51-1.97-2.5-2.53-.94-.54-2.66-1.54-2.97.62-.38,2.62-1.44,1.99-3.33,1.57-1.34-.3-3.2.65-4.45,1.57-.58.43-.73,2.74-.24,3.1,2.01,1.51,3.71,3.79,6.8,3.4,2.31-.28,4.37.08,6.19,2.11,1.9,2.12,4.7,2.56,7.57,2.05,1.01-.18,2.07-.13,3.1-.19-.03,1.04.18,2.17-.16,3.1-.58,1.59.39,2.47,1.43,2.28,3.3-.62,6.58-1.46,9.73-2.59.94-.34,1.43-1.91,2.13-2.91-1.16-.1-2.31-.2-3.47-.29-.08,0-.18.08-.24.06-.66-.27-1.31-.56-1.96-.84.29-.55.45-1.23.89-1.6.7-.6,1.68-.89,2.36-1.5.51-.46.74-1.23,1.1-1.86-.57-.3-1.1-.72-1.71-.88-1.72-.44-3.49-.69-5.19-1.2-.59-.18-1.43-.92-1.42-1.39.01-.54.76-1.18,1.32-1.58,1.1-.78,2.3-1.43,3.73-2.39M1805.91,337.04c-1.84,1.43-1.67,2.91.11,4.15,2.61,1.82,5.31,3.51,8.21,5.42-.45,1.12-.03,2.58,1.85,2.97,2.73.57,5.51,1.01,8.29,1.19,3.16.2,6.34,0,9.51.09.98.03,2.26.14,2.85.75,1.22,1.26,2.18,1.2,3.59.42,1.77-.99,3.96-1.46,4.03-4.28-.52.05-.85.1-1.18.12-1.08.07-2.16.12-3.25.19.72-.88,1.39-1.82,2.17-2.64,1.12-1.17,2.32-2.25,3.48-3.37-.14-.27-.28-.54-.43-.8-1.2.17-2.44.6-3.59.43-1.36-.2-3.56-.67-3.79-1.48-.78-2.76-1.93-1.5-3.56-1.08-2.22.57-5.2,1.42-6.77.42-1.9-1.21-3.11-1.07-4.45-.1-2.85,2.07-5.54,1.63-8.26-.09-1-.63-1.96-1.33-2.93-2.02-1.56-1.12-3.11-2.25-4.86-3.52-.32,1.24-.54,2.11-1.02,3.24M786.94,315.76c2.61-1.42,5.27-2.77,7.81-4.32.68-.41.98-1.44,1.45-2.18-.91-.28-1.8-.73-2.72-.79-.6-.04-1.24.47-1.85.75-3.38,1.58-6.81,2-10.37.58-.49-.2-1.16-.13-1.7,0-4.17,1.07-8.27,2.28-12.48-.14-1.48-.85-3.25-.46-4.34,1.1-1.11,1.59-.74,3.28.6,4.37,1.48,1.2,3.32,1.94,4.99,2.91,1.21.7,2.43,1.4,3.59,2.18,1.2.8,2.22,2.16,3.51,2.46,2.87.66,5.85,1,8.8,1.1,1.64.05,3.35-.54,4.95-1.07.44-.15,1-1.32.82-1.63-.3-.52-1.13-.96-1.77-1.03-1.7-.17-3.42-.03-5.12-.22-.51-.06-1.23-.73-1.32-1.21-.08-.47.4-1.34.86-1.55,1.22-.56,2.57-.85,4.27-1.31M1767.11,312.79c-.3.47-.8.9-.87,1.4-.28,1.94-1.58,2.63-3.25,2.54-3.09-.17-6.2,2.14-9.29-.05-.08-.06-.41.23-.83.47,1.59,2.93-.48,2.98-2.44,2.85-1.58-.11-3.14-.56-4.72-.78-.65-.09-1.76-.24-1.93.05-1.51,2.65-3.73,1.65-5.78,1.05-.71,3.39,1.8,6.35,5.77,7.22.78.17,1.9.43,2.17.98.95,1.95,2.73,2.25,4.46,2.53.65.11,1.76-.32,2.04-.84.32-.59.08-1.59-.17-2.34-.13-.39-.89-.53-1.18-.91-.38-.5-.75-1.14-.77-1.73,0-.23.92-.56,1.46-.72.39-.12.85-.09,1.28-.06,6.2.5,11.8-2.18,17.67-3.38,1.21-.25,2.06-1.11,1.13-2.46-1.56-2.29-.07-2.41,1.69-2.79,1.62-.35,3.17-1.08,4.67-1.81.37-.18.68-1.08.55-1.49-.12-.35-.93-.71-1.4-.68-3.29.23-6.58.57-10.25.95M857.47,328.92c.76.24,1.52.67,2.28.69,4.98.1,9.57-1.51,13.91-3.7,2.14-1.08,4.54-2.21,5.16-4.98.17-.78.22-1.59.33-2.38-.78,0-1.56.03-2.33-.03-1.68-.13-3.37-.27-5.04-.5-1.13-.15-2.32-.82-3.33-.6-2.09.45-5.18-.04-5.78-1.92-.87-2.71-3.17-3.85-4.96-5.51-.72-.67-2.17-.57-3.28-.83-.13,1.5-.35,2.99-.32,4.49.01.46,1,.87,1.06,1.36.11.89.18,2.35-.3,2.65-1.92,1.18-1.66,2.72-.91,4.2.75,1.5,2.02,1.41,3.51.75.67-.3,1.93-.01,2.51.49.36.31.2,1.65-.15,2.29-.63,1.16-1.58,2.16-2.36,3.53M1458.02,303.16c-.64-.44-1.28-.89-1.92-1.33.64-.6,1.18-1.4,1.94-1.75,1.22-.57,2.83-.53,3.8-1.33.85-.7,1.26-2.17,1.4-3.36.06-.5-1.02-1.55-1.68-1.64-1.96-.27-4.26,1.48-5.81-1.11-.07-.11-.5-.07-.74-.01-2.06.45-4.1,1.09-6.18,1.32-1.66.19-3.43.09-5.06-.26-1.38-.3-2.6-1.28-3.97-1.7-.58-.18-1.48.15-2.02.54-.8.59-1.32,1.53-2.1,2.16-1.24,1.01-1.01,2.02.12,2.69,2.84,1.68,5.72,3.34,8.71,4.72,1.41.65,2.61,1.08,2.8,2.87.05.48.78,1.18,1.29,1.27,2.92.49,5.86.99,8.81,1.14,1.48.08,3.01-.56,4.51-.87-1.17-1.08-2.34-2.15-3.88-3.32M1227.97,306.32c-2.88-1.09-5.65-1.8-8.92-1.36-3.41.47-7-.36-10.51-.48-.65-.02-1.62.43-1.94.96-.95,1.59.08,3.34,2.19,4.01,2.85.91,5.69,1.83,8.68.35.49-.24,1.23.04,2.08.1-.93,2.78-3.22,3.48-5.11,4.68-.56.35-1.23,1.64-1.15,1.7,1.29,1.12,2.55,2.52,4.1,3.05,1.78.61,3.82.41,5.75.62,1.76.19,4.31-1.58,4.49-3.45.25-2.57-1.92-1.41-3.09-1.79-.16-.05-.39.02-.5-.07-.49-.39-1.25-.78-1.33-1.26-.08-.49.39-1.28.85-1.61.81-.6,1.95-.78,2.68-1.44,1.1-1.01,3.38-1.53,1.76-4.03M932.02,324.36c-4.52-.02-8.79-.92-12.64-3.41-1-.65-1.98-1.32-2.97-1.99-.61.97-1.21,1.93-1.82,2.9-.04.07-.11.13-.18.18-2.29,1.89-.78,3.39.7,4.51,1.87,1.42,4.03,2.47,6.04,3.71.64.39,1.41.76,1.8,1.35,2.11,3.17,3.86,4,7.52,3.38,2.72-.46,4.22-2.83,3.06-5.02-1.16.51-2.29,1.14-3.5,1.48-.52.15-1.21-.29-1.82-.46.16-.53.16-1.24.51-1.56.93-.86,2.03-1.54,3.02-2.34.84-.69,2.01-1.36.27-2.74M1189.75,303.86c-.55-2.09-4.31-4.96-6.39-4.96-1.71,0-2.2.91-2.18,2.44.03,2.37.31,4.83-1.86,6.7-.26-.06-.61-.07-.9-.21-1.7-.81-3.28-.6-4.32.96-1.27,1.89-1.99,3.89-.45,6.16,1.13,1.68,2.56,2.26,4.38,1.82,5.32-1.29,10.93-5.92,11.74-12.92M174.91,301.17c-.65-.26-1.31-.72-1.96-.72-.63,0-1.24.63-1.89.7-.96.09-1.95-.08-2.92-.13.51-.75.94-1.57,1.55-2.24,1.03-1.13,2.18-2.17,3.28-3.25-.1-.22-.19-.44-.29-.67-5.86-.6-11.48-1.85-15.86-5.75-1.09,1.42-1.77,2.62-2.74,3.49-1.24,1.1-1.2,2.05,0,2.92,2.53,1.85,5.17,3.55,7.71,5.39.99.72,1.83,1.66,2.74,2.5-.16.2-.31.4-.47.6,7.02,2.01,7.5,1.9,10.87-2.84M540.24,271.2c1.03.61,2.01,1.34,3.1,1.79,1.94.81,4.93.44,4.16,4.03-.02.09.2.26.33.36,1.31,1.06,6.73,1.1,8.03-.15.81-.77,1.22-1.97,1.81-2.97-.99,0-1.97-.01-2.96,0-.17,0-.35.12-.5.09-.78-.19-1.55-.4-2.33-.61.41-.66.73-1.41,1.25-1.97.45-.48,1.27-.63,1.67-1.12.42-.53.9-1.45.7-1.93-.2-.5-1.16-.8-1.84-.97-.88-.22-1.84-.12-2.72-.34-3.97-.98-7.86-2.16-10.88-5.85-.81,1.63-1.12,3.12-2.04,3.92-1.82,1.6-1.25,2.67.24,3.9.59.49,1.12,1.05,1.97,1.81M264.62,289.11c-2.03,1.01-4.01,2.18-6.12,2.97-1.09.4-2.46.31-3.64.09-.87-.16-1.62-.92-2.47-1.32-2.14-.99-3.35.76-4.63,1.84-.49.41-.71,2-.34,2.46,2.5,3.09,6.02,4.65,9.7,5.8.43.14,1.1-.49,1.66-.76-.4-.43-.74-.95-1.2-1.28-.48-.34-1.09-.5-1.64-.75l-.02-.67c2.22-.93,4.52-1.69,6.63-2.82,2.14-1.14,4.16-2.56,6.08-4.05.43-.33.6-1.72.28-2.12-.41-.5-1.47-.69-2.22-.63-.6.05-1.16.67-2.07,1.23M1769.56,336.39c.28-.74.56-1.48.85-2.22-.71-.13-1.41-.29-2.13-.4-2.24-.33-4.48-.63-6.73-.94,0-.28,0-.57,0-.85-.4.29-.87.52-1.2.87-2.09,2.29-4.12,4.47-7.72,4.28-1.54-.08-1.55,1.4-.48,2.06,2.3,1.42,4.76,2.57,7.2,3.73.36.17.99-.11,1.45-.3,1.96-.81,4.04-1.44,5.8-2.56,1.16-.74,1.87-2.2,2.94-3.68M116.81,314.89c-1.21.31-2.42.61-3.63.92-2.82.72-5.55,3.64-8.55.31-.19-.21-.84-.16-1.21-.05-1.87.57-3.76,1.1-5.53,1.9-.47.22-.85,1.91-.73,1.98,2.56,1.42,5.25,3.89,7.8,3.77,4.48-.21,8.6-2.6,11.69-6.14.5-.57.35-1.69.16-2.7M1516.51,265.75c-.6-.23-1.2-.46-1.23-.47-.59,1.59-.69,3.19-1.53,3.86-1.71,1.35-1.46,2.47-.05,3.46,2.14,1.5,4.47,2.73,6.72,4.08,1.63.98,3.03,1.68,3.82-1.03.21-.74,1.53-1.19,2.38-1.69.72-.43,1.63-.61,2.24-1.14.49-.43.65-1.22.96-1.86-.67-.11-1.34-.31-2.01-.31-.81,0-1.81.52-2.41.21-2.93-1.52-5.74-3.24-8.88-5.11M190.59,320.46c6.28,2.34,12.54,3.92,18.15-1.45.98-.94,1.49-2.38,2.21-3.59-1.4.13-2.89,0-4.19.44-2.83.93-5.52,3.07-8.5.37-.19-.17-.65-.08-.98-.04-2.02.23-4.05.39-6.05.75-.81.15-1.53.76-2.29,1.16.43.73.87,1.46,1.64,2.38M791.4,353.09c.08-2.18-1.61-1.27-2.5-1.25-2.31.03-4.48.06-5.34-3.65-1.9,3.93-4.68,5.25-8.14,5.42-.42.02-1.21.85-1.14,1.09.24.75.65,1.65,1.27,2.04,1.5.95,3.09,1.93,4.78,2.35,1.63.4,3.86.76,5.07-.03,2.22-1.44,3.89-3.74,5.99-5.96M480.56,293.05c1.03.75,1.96,1.83,3.11,2.18,2.2.68,4.6,1.48,6.8,1.22,2.08-.24,4-1.77,6-2.72,1.46-.69,1.94-1.9.95-3.06-.56-.65-1.88-.84-2.88-.89-1.73-.09-3.69.62-5.17.03-3.08-1.22-5.39.65-8,1.29-.42.1-.62,1.07-.81,1.95M1061.43,379.79c2.4.53,4.8,1.42,7.2,1.43,1.21,0,2.85-1.34,3.48-2.52.35-.64-.71-2.53-1.61-3.28-2.65-2.19-5.9-2.8-8.98-1.27-1.41.7-2.23,2.61-3.31,3.98.94.51,1.88,1.02,3.22,1.65M689.95,339.4c.77-.16,1.54-.32,3.13-.64-2.73-2.46-4.86-4.39-7.28-6.57-1.34,5.25-1.94,5.51-6.01,3.78-.78-.33-2.27-.41-2.64.05-.8.97-1.5,2.41-1.4,3.57.06.63,1.91,1.65,2.86,1.56,3.66-.35,7.29-1.08,11.33-1.75M840.12,290.06c1.35,1.03,2.68,2.09,4.08,3.06.37.25,1.2.43,1.39.24.97-1.01,2.33-2.07,2.54-3.28.24-1.39-.11-3.46-1.04-4.35-1.59-1.52-3.83-2.35-5.78-3.46-.57,1.19-.85,2.53-1.66,3.32-2.18,2.14-2.27,2.05.48,4.48M1364.02,318.92c-2.33-2.27-2.32-2.26-4.02.31-.22.33-.63.52-.96.78-1.77,1.41-3.36.03-5.03-.27-.69-.13-1.72-.17-2.12.22-.79.79-1.25,1.92-1.84,2.89,3.33,2.36,13.99,1.32,16.54-1.78-.75-.62-1.52-1.26-2.57-2.14M402,277.08c.51,2.16,2.97,4.73,4.62,4.81,1.66.08,5.56-2.9,6.14-4.49-2.27-1.55-4.43-3.12-6.71-4.5-.41-.25-1.55.08-1.92.52-.83.98-1.39,2.19-2.14,3.66M682.04,321.87c3.02,2.62,12.51,3.27,13.66,1.41-2.92-2.02-5.76-4.07-8.71-5.96-.59-.38-2-.51-2.29-.15-1.09,1.32-1.88,2.9-2.66,4.7M1154.84,339.06c-1.47-.35-2.93-.79-4.42-1.01-.88-.13-1.82.08-2.73.14.56.7.98,1.78,1.7,2.04,2.71.98,5.28,2.02,8.48,1.59,2.02-.27,3.99.26,5.87-1.22,1-.79,2.32-1.39,1.48-2.65-.4-.61-2.06-.7-3.07-.53-2.31.39-4.57,1.08-7.32,1.64M877.4,345.32c-2.09-1.29-2.78-1.02-4.2,1.63-1.66,3.11-3.25,3.9-5.86,2.92-3.89-1.47-4.08-1.42-7.47,2.22,1.83.62,3.55,1.83,5.05,1.6,4.8-.74,9.06-2.86,12.26-6.7.28-.34.27-.91.22-1.66M979.53,358.04c-.43.54-.86,1.09-1.3,1.63.68.24,1.55.88,2,.66,3.16-1.54,6.32-3.12,9.28-5.01.87-.56,1.77-2.53,1.42-3.22-.9-1.75-2.47-.48-3.49.21-2.61,1.75-5.07,3.71-7.92,5.74M615.14,356.58c2.28-.58,4.72-.89,6.41-3.16-1.04-.57-1.74-1.2-2.51-1.3-.62-.08-1.82.37-1.91.77-.5,2.32-2.24,2.2-3.8,1.94-2.11-.35-4.21-1.65-5.92.83-.14.2-.82-.03-1.21.07-.85.19-1.68.47-2.51.71.79.62,1.64,1.82,2.36,1.75,2.92-.28,5.81-.96,9.1-1.61M1358.25,301.79c-.36.57-.64,1.22-1.09,1.71-1.34,1.47-.66,2.45.88,2.73,3.08.56,6.21.88,9.33,1.23.68.07,1.39-.19,2.44-.36-.56-.77-.75-1.29-1.13-1.52-2.38-1.46-4.73-2.97-7.23-4.19-.79-.39-1.99.04-3.19.4M925.94,350.34c.93-2-.59-1.58-1.61-1.6-1.81-.03-3.63-.02-5.44-.03-1.45,0-2.91-.12-4.33.07-.52.07-1.43,1.15-1.35,1.3.87,1.52,1.76,3.08,2.99,4.3.31.3,1.81-.62,2.77-.96.48-.17.99-.25,1.45-.45,1.76-.78,3.51-1.58,5.52-2.62M346.35,319.98c.71.47,1.42.96,2.14,1.42,3.7,2.38,6.39,2.18,9.63-.81.45-.41.9-1.6.73-1.75-.55-.51-1.74-1.18-2.05-.94-2.92,2.21-5.63.13-8.36-.33-2.23-.37-2.59-.24-2.09,2.42M157.21,318.92c-1.27.26-2.54.53-3.82.79.76,1.43,1.35,2.99,2.34,4.24.44.56,1.78.9,2.48.67,1.73-.58,3.37-1.47,4.96-2.38,1.18-.68,2.24-1.59,3.35-2.39l-.47-.49c-2.79-.15-5.59-.29-8.84-.44M1826.44,359.92c-2.59.2-5.18.4-8.23.64.06.38-.03,1.46.46,2.12.28.39,1.48.15,2.26.12.76-.03,1.52-.15,2.28-.24,3.27-.39,6.55-.72,9.81-1.21.72-.11,1.36-.77,2.12-1.23q-3.95-3.41-7.66-.74c-.21.15-.44.26-1.04.55M106.6,355.26c-1.85.59-3.69,1.18-5.54,1.77l-.08,1.22c2.84,1.39,5.63,2.92,8.55,4.1,1.26.51,4.41-2.05,3.86-2.87-.53-.79-2.03-1.33-3.09-1.29-2.1.07-2.88-1.06-3.7-2.94M843.47,312.2c-1.25.16-2.52.22-3.74.52-.52.12-1.35,1-1.32,1.06.91,1.38,1.67,3.09,2.98,3.87.91.54,2.74.08,3.88-.49.96-.48,1.5-1.78,2.24-2.7,1.13-1.41.67-2.55-.66-3.42-1.32-.86-2.41-.58-3.38,1.17M197.07,375.23c-1.96-1.6-3.85-3.29-5.92-4.72-.56-.39-1.89-.3-2.45.13-.59.45-1.07,1.64-.91,2.36.73,3.45,8.18,5.84,11.24,3.56-.59-.38-1.14-.74-1.96-1.32M547.51,294.83c.56-.38,1.19-.7,1.67-1.17.3-.3.62-.94.48-1.22-.16-.34-.79-.65-1.2-.63-2.86.16-5.72.33-8.56.67-.92.11-1.78.73-2.67,1.12.47.91.76,2.02,1.47,2.68.71.66,1.98,1.39,2.75,1.18,1.99-.54,3.84-1.59,6.06-2.64M1051.5,365.53c-.81.73-1.59,1.51-2.45,2.18-1.53,1.19-1.21,2.22.14,3.26.4.31.77.67,1.12,1.05,2.81,3.05,4.05,3.27,6.17-1.22-1.19-1.46-2.25-2.8-3.35-4.1-.37-.43-.86-.77-1.63-1.17M97.23,304.14c-.68.04-1.7-.2-1.98.15-1.03,1.3-1.81,2.8-2.68,4.22,1.3.24,2.72.94,3.86.63,1.92-.53,3.68-1.65,5.45-2.64.41-.23.86-1.02.75-1.39-.12-.41-.85-.82-1.36-.88-1.18-.14-2.39-.06-4.05-.09M1828.47,386.29c-.37-.57-.62-1.33-1.14-1.68-1.74-1.16-3.51-2.32-5.41-3.18-1.31-.59-2.86-.95-4.29-.93-1.64.02-1.92,1.31-.71,2.19,3.33,2.43,6.61,5.27,11.55,3.6M1514.5,295.73c-1.79.13-2,1.41-1.32,2.51.82,1.33,1.69,3.36,3.84,2.4,1.52-.68,2.91-1.77,4.13-2.92.58-.55.63-1.65.93-2.5-1.17-.25-2.37-.76-3.51-.67-1.24.1-2.45.75-4.07,1.19M107.05,327.4c-.79.31-1.57.65-2.37.93-2.07.72-2.27,1.45-.76,2.93,2.25,2.21,3.64,2.05,6.48-1,.84-.91,1.35-2.13,2-3.21-1.5,0-3.01,0-4.51.01-.15,0-.31.14-.84.34M676.58,317.17c2.6.8,3.1-2.46,2.97-2.73-.8-1.67-2.06-3.14-3.3-4.57-.27-.32-1.18-.46-1.57-.26-2.99,1.62-3.69,2.8-1.09,5.05.9.78,1.78,1.58,2.98,2.51M492.59,305.09c1.07-1.18,2.22-2.29,3.17-3.57.3-.4.25-1.32-.02-1.79-.18-.31-1.07-.44-1.56-.32-1.8.47-3.61.95-5.31,1.67-.82.35-1.95,1.22-1.95,1.87,0,.74.94,1.88,1.71,2.15,1.1.39,2.43.15,3.96-.03M1455.63,338.9c1.73-1.04,3.93-1.81,3.18-4.49-.13-.48-1.76-1.02-1.78-.98-1.69,2.85-4.34,3.54-7.4,3.67-1.14.05-1.68.91-.66,1.94,2.39,2.41,3.95,2.42,6.65-.14M353.82,345.5c3.82,1.68,5.05,1.37,6.31-1.81-.69-.26-1.42-.44-2.06-.78-.74-.4-1.4-1.34-2.11-1.35-1.92-.04-5.03-.34-5.52.59-1.03,1.97,1.79,2.22,3.37,3.36M484.3,277.56c-1.11-.01-2.24.11-3.32-.07-3.15-.53-3.71-.22-4.59,2.89-.45,1.58.44,2.6,2.02,2.07,2.33-.78,4.6-1.74,6.84-2.75.51-.23.79-.97,1.17-1.47-.58-.23-1.17-.46-2.13-.68M1763.27,365.57c1.53-1.02,3.15-1.94,4.54-3.12.38-.32.3-1.56,0-2.16-.18-.34-1.32-.48-1.87-.28-1.74.65-3.46,1.42-5.09,2.32-.74.41-1.25,1.25-1.87,1.9.78.47,1.52,1.01,2.35,1.36.43.18,1.01.02,1.94-.03M606.99,333.49c.21.65.23,1.66.66,1.88,1.94,1.02,3.92,2.24,6.02,2.56,1.69.25,3.56-.69,5.75-1.19-3.99-1.54-7.32-2.86-10.69-4.06-.4-.14-1.02.35-1.73.81M1349.36,292.72c-.86,1.21-2.64,2.74-2.36,3.57.48,1.42,2.13,2.61,3.54,3.48.56.34,1.92-.23,2.68-.74.42-.28.7-1.58.43-1.94-1.19-1.56-2.62-2.95-4.28-4.37M323.91,289.88c3.2,1.8,10.84-.34,11.97-3.85-2.01.41-3.8.64-5.5,1.16-2.19.67-4.31,1.58-6.47,2.68M1219.43,348.84c1.33.48,2.65.96,3.98,1.44.17-.33.35-.66.52-.99-2.33-1.77-4.64-3.58-7.02-5.29-.39-.28-1.06-.15-1.61-.21.02.63-.23,1.51.09,1.83,1.12,1.13,2.44,2.07,4.03,3.21M65.68,341.36c1.18-.39,2.43-.63,3.5-1.22.44-.24.47-1.22.68-1.86-.74-.16-1.81-.7-2.16-.4-1.46,1.23-2.78,1.29-4.42.41-.6-.32-1.51-.05-2.59-.05,1.12,2.21,2.45,3.28,4.99,3.13M74.64,321.74c-1.2-1.41-2.21-3.2-4.5-2.69-.59.13-1.38.57-1.54,1.05-.15.45.23,1.39.67,1.69,1.33.89,2.77,1.65,4.23,2.3.42.18,1.41-.03,1.55-.32.21-.47-.09-1.16-.4-2.02M866.26,389.75c1.61-.78,1.58-2.14,1.01-3.47-.25-.58-1.24-1.42-1.58-1.29-1.53.56-2.96,1.41-4.37,2.25-.08.05.22,1.27.55,1.41,1.31.53,2.7.83,4.38,1.1M359.44,299.96c-.98.43-1.97.87-2.95,1.3-.04.31-.08.62-.11.93,1.15.35,2.31.99,3.45.95,1.03-.04,2.15-.68,2.97-1.37.33-.28-.06-1.4-.12-2.14-.95.09-1.9.17-3.23.32M974.4,344.29c.72-.74,1.44-1.47,2.16-2.21-.94-.33-1.87-.68-2.82-.98-.31-.1-.69-.13-1.01-.06-.82.17-1.62.41-2.43.63.58.87,1.04,1.88,1.79,2.57.38.35,1.28.13,2.31.06M206.41,327.36c-.93-.36-1.89-1.06-2.78-.98-1.04.09-2.02.87-3.03,1.35,1.14.64,2.23,1.62,3.43,1.78.68.09,1.54-1.16,2.38-2.15M431.54,320.69c-.22.79-.43,1.58-.81,2.98,1.47-.2,2.64-.19,3.64-.58.56-.21,1.31-1.47,1.18-1.63-.7-.91-1.61-1.69-2.57-2.34-.13-.09-.93.8-1.44,1.58M349.46,287.2c-1.22.73-2.46,1.45-3.62,2.26-.06.04.59,1.42.72,1.39,1.33-.32,2.79-.55,3.89-1.29,1.45-.97,1.12-1.97-.99-2.36M1695.15,266.98c-.52-.27-1.05-.75-1.57-.76-.76,0-1.52.33-2.28.52.24.66.41,1.36.74,1.96.24.42.67.95,1.08,1.01.8.11,1.81.2,2.43-.19,1-.63,1.21-1.63-.4-2.55M185.93,341.07c-.31-.13-.61-.36-.93-.38-.85-.06-1.72-.12-2.55.02-.15.03-.38,1.31-.14,1.53.63.56,1.47.9,2.28,1.21.36.14.85.08,1.25-.03,1.61-.44,2.12-1.14.1-2.34M1829.99,375.75c1-1.05.7-1.82-.66-1.68-1.37.14-2.73.67-4.02,1.2-.36.15-.45.93-.66,1.41.51.19,1.08.64,1.52.53,1.22-.3,2.38-.82,3.83-1.47M618.63,324.17c-1.16-.57-2.39-1.77-3.48-.09-.31.47-.18,1.82.17,2.01.7.39,1.8.55,2.52.26.53-.22.71-1.29.79-2.18M1151.37,328.42c1.64.33,2.87-.17,2.66-1.98-.08-.73-1.29-2-1.77-1.91-1.74.33-2.18,1.69-1.58,3.34.05.15.22.25.68.55M868.35,356.67c-1.13,1.82.7,1.99,1.54,2.35.59.26,1.64-.08,2.26-.5.38-.26.63-1.45.39-1.7-.44-.47-1.27-.7-1.97-.76-.63-.06-1.3.23-2.22.61M168.32,287.67c-.72-.16-1.58-.64-2.11-.4-.71.33-1.16,1.22-1.73,1.87.79.41,1.82,1.33,2.33,1.11.77-.34,1.18-1.49,1.51-2.57M924.73,317.54c-.73,1.42-.29,2.52,1.26,2.48.84-.02,1.65-1.05,2.47-1.62-.92-.48-1.84-.98-2.78-1.41-.15-.07-.45.18-.95.56M1806.73,366.71c.65-.46,1.3-.93,1.95-1.39-.9-.56-1.76-1.24-2.74-1.61-.29-.11-.91.66-1.38,1.03.59.65,1.18,1.31,2.18,1.97M1469.73,294.54c.18-.86.47-1.72.46-2.59,0-.16-1.3-.61-1.73-.39-.52.27-1.17,1.37-1,1.64.39.63,1.23.98,2.27,1.34M1154.53,330.68c.28.72.38,1.7.91,2.06.44.3,1.45.03,2.06-.28.26-.13.33-1.4.15-1.49-.74-.36-1.59-.49-2.41-.66-.13-.03-.3.13-.71.37M1234.76,259.93c-.57.42-1.49.75-1.61,1.28-.11.47.68,1.65,1.02,1.63.99-.06,1.95-.56,3.57-1.12-1.4-.87-2.03-1.26-2.98-1.79M687.51,353.03c-.78.2-1.63.29-2.3.68-.23.13,0,1.04.01,1.59.73-.08,1.6.05,2.15-.31.37-.24.29-1.17.13-1.96M1295.39,337.73c-.25-.56-.5-1.12-.75-1.67-1.03.76-2.07,1.52-3.1,2.28.19.3.37.61.56.91,1.01-.43,2.03-.86,3.29-1.52M551.54,262.36c.05-.49.1-.97.15-1.46-.94-.04-1.9-.17-2.82-.06-.17.02-.23.99-.34,1.52.92.07,1.84.14,3.01,0M1243,244.64l2.73-.4c-.3-.5-.52-1.34-.91-1.44-1.13-.27-2.3-.2-1.82,1.84Z" style="fill: #000001; stroke-width: 0px;"/>
</svg>